<?xml version="1.0" encoding="utf-8"?>
<!-- Generator: Adobe Illustrator 26.0.3, SVG Export Plug-In . SVG Version: 6.00 Build 0)  -->
<svg version="1.1" xmlns="http://www.w3.org/2000/svg" xmlns:xlink="http://www.w3.org/1999/xlink" x="0px" y="0px"
	 viewBox="0 0 1080 198" style="enable-background:new 0 0 1080 198;" xml:space="preserve">
<style type="text/css">
	.st0{fill:#1D98CD;}
	.st1{fill:#1E99CD;}
	.st2{fill:#299ACE;}
	.st3{fill:#1F99CD;}
	.st4{fill:#2099CD;}
	.st5{fill:#2199CD;}
	.st6{fill:#49A1D1;}
	.st7{fill:#349CCF;}
	.st8{fill:#2499CD;}
	.st9{fill:#2299CD;}
	.st10{fill:#47A0D1;}
	.st11{fill:#359CCF;}
	.st12{fill:#329BCE;}
	.st13{fill:#339CCE;}
	.st14{fill:#2C9ACE;}
	.st15{fill:#369CCF;}
	.st16{fill:#3D9ED0;}
	.st17{fill:#3E9ED0;}
	.st18{fill:#2399CD;}
	.st19{fill:#3C9ED0;}
	.st20{fill:#339CCF;}
	.st21{fill:#399DCF;}
	.st22{fill:#379CCF;}
	.st23{fill:#2B9ACE;}
	.st24{fill:#3F9ED0;}
	.st25{fill:#3C9DD0;}
	.st26{fill:#2D9BCE;}
	.st27{fill:#2E9BCE;}
	.st28{fill:#269ACD;}
	.st29{fill:#2F9BCE;}
	.st30{fill:#279ACE;}
	.st31{fill:#409FD0;}
	.st32{fill:#439FD1;}
	.st33{fill:#2A9ACE;}
	.st34{fill:#3C9DCF;}
	.st35{fill:#69ACD7;}
	.st36{fill:#46A0D1;}
	.st37{fill:#C1D8EC;}
	.st38{fill:none;}
	.st39{fill:#1C98CE;}
</style>
<g id="Layer_1">
	<g>
		<path class="st0" d="M273.16,56.49c-4.43-2.21-8.69-4.29-12.9-6.47c-1.28-0.66-2.42-0.7-3.65-0.07c-0.29,0.15-0.58,0.29-0.86,0.43
			c-3.27,1.69-7.1,2.8-9.64,5.25c-2.2,2.12,0.76,5.38,0.72,8.37c-0.06,4.4-1.37,5.98-5.61,6.8c-11.52,2.24-17.35,5.13-26.16,11.98
			c-1.82-14.25,2.49-26.2,12.62-35.7c12.13-11.37,26.7-14.22,42.34-9.02c15.48,5.14,24.84,16.57,27.35,32.41
			c3.42,21.58-8.24,40.42-28.96,47.25c-2.23,0.74-3.62,0.57-3.55-2.45c0.19-7.74-4.47-12.3-10.77-15.66
			c-5.3-2.83-11.48-3.89-15.85-8.6c-5.27-5.69-4.32-12.73,2.65-16.16c3.14-1.54,6.45-2.95,9.85-3.66c3.49-0.73,5.07-2.12,4.53-5.76
			c-0.34-2.28,0.03-4.08,3.11-4.16c3.14-0.07,4.05,1.46,3.6,4.16c-0.64,3.87,1.26,4.35,4.61,4.43c3.68,0.09,4.02-1.44,4.12-4.52
			C270.81,62.42,268.78,58.7,273.16,56.49z"/>
		<path class="st1" d="M964.41,50.17c4.75,12.12,2.57,17.92-8.13,24.3c-6.91,4.12-13.67,7.93-22.2,7.91
			c-5.31-0.01-8.43,3.97-10.3,8.89c-2.13,5.59-4.53,11.09-6.95,16.57c-1.21,2.75-2.73,5.36-5.22,7.21c-1.06,0.78-2.19,1.78-3.6,1.2
			c-1.55-0.64-1.27-2.18-1.26-3.48c0.02-3.06,0.85-5.88,2.41-8.54c3.47-5.91,6.62-11.87,6.15-19.17c-0.2-3.11,0.92-6.3,2.88-8.9
			c3.81-5.04,5.9-10.72,6.96-16.9c0.51-3,1.89-5.77,4.34-7.68c1.8-1.4,4.05-3.05,6.32-1.36c2.25,1.68,1.6,4.29,0.46,6.39
			c-2.26,4.16-3.29,8.7-4.66,13.14c-0.98,3.16-0.6,5.9,1.75,8.29c2.45,2.49,5.42,2.3,8.38,1.4c7.59-2.31,12.67-7.09,14.4-15.06
			c1.71-7.93-1.71-13.54-8.04-17.82c-11.41-7.72-23.65-11.01-37.26-7.01c-8.27,2.43-16.97,4.04-21.82,12.54
			c-0.64,1.12-2.24,2.44-3.79,1.1c-1.38-1.19-0.87-2.88,0.13-4.06c1.16-1.38,2.47-2.81,4.02-3.66
			c10.59-5.81,21.57-10.26,33.98-10.46c10.51-0.17,20.56,1.29,29.94,6.24c0.93,0.49,1.73,0.8,2.78,0.3
			c4.84-2.3,9.51-0.82,13.96,1.08c6.58,2.8,13.11,3.24,20.36,2.92c19.45-0.87,38.96-0.37,58.44-0.39c0.66,0,1.36,0.08,1.96,0.32
			c1.01,0.4,2.76,0.2,2.67,1.7c-0.1,1.65-1.78,1.74-3.08,1.76c-12.96,0.28-25.83,2.64-38.84,1.89c-1.49-0.09-3-0.06-4.5-0.05
			c-7.98,0.07-11.58,2.39-12.63,10.33c-1.06,7.96-4.43,14.93-7.06,22.26c-2.64,7.37-0.59,15.19-1.54,22.75
			c-0.16,1.31,0.16,2.71-0.12,3.98c-0.78,3.48-2.72,6.46-6.34,6.91c-3.38,0.43-4.58-2.84-5.79-5.36
			c-2.87-5.99-1.29-12.11-0.17-18.14c1.93-10.34,5.05-20.34,9.31-29.97c0.67-1.51,1.18-3.12,1.54-4.73c1.33-5.89,0-7.55-6.02-7.84
			C973.75,50.77,969.29,50.46,964.41,50.17z"/>
		<path class="st2" d="M428.74,71.59c0-10.33,0.13-20.67-0.06-30.99c-0.07-3.94,1.47-5.37,5.28-5.31
			c14.68,0.22,13.21-1.77,13.24,12.94c0.02,11.83,0.11,23.66-0.06,35.49c-0.05,3.4,0.84,5.02,4.44,4.51
			c4.38-0.62,5.84,1.37,5.75,5.71c-0.23,10.83,0.08,21.66-0.16,32.49c-0.08,3.77,1.03,4.93,4.79,4.8c2.3-0.08,6.51-1.77,6.65,1.53
			c0.1,2.41-4.22,1.14-6.52,1.19c-7.79,0.19-7.79,0.07-7.79-7.68c0-10.16-0.11-20.33,0.06-30.49c0.05-3.27-0.63-5.17-4.34-4.62
			c-4.78,0.71-5.9-1.61-5.82-6.07c0.25-13.83-0.11-27.67,0.21-41.49c0.11-4.58-1.39-6.04-5.66-5.39c-1.14,0.17-2.34,0.13-3.49,0.01
			c-3.56-0.38-3.54,1.88-3.54,4.42c0.04,20.66,0.02,41.33,0.03,61.99c0,2.81,0.07,5.36-4.03,5.29c-3.37-0.06-4.86-1.19-4.81-4.68
			c0.12-9-0.09-18,0.11-26.99c0.07-3.29-0.95-4.3-4.24-4.24c-10.16,0.19-20.33,0.19-30.49,0c-3.29-0.06-4.3,0.96-4.24,4.24
			c0.18,10.66,0.04,21.33,0.09,31.99c0.01,3.04-0.08,5.86-4.18,5.91c-1.83,0.02-2.13,1.22-2.12,2.69c0.01,2,0.01,4-0.01,6
			c-0.04,3.41-1.44,5.14-5.18,5.04c-7.16-0.19-14.33,0.01-21.49-0.11c-1.41-0.02-4.04,0.99-3.88-1.56c0.15-2.27,2.69-1.25,4.16-1.28
			c6.33-0.12,12.67-0.16,18.99,0c2.85,0.07,3.94-0.92,3.7-3.74c-0.17-1.98-0.09-4,0-6c0.08-1.76,0.72-3.77,2.61-3.72
			c4.47,0.11,4.02-2.71,4.01-5.6c-0.05-10.33,0.12-20.67-0.08-30.99c-0.09-4.43,1.33-6.36,6.01-6.27
			c11.33,0.22,22.66,0.18,33.99,0.01c3.87-0.06,5.37,1.26,5.28,5.21c-0.2,8.83-0.11,17.66-0.01,26.49c0.02,1.46-1.02,4.13,1.19,4.15
			c2.65,0.03,1.59-2.81,1.61-4.4C428.79,91.92,428.74,81.76,428.74,71.59z"/>
		<path class="st1" d="M20.88,115.46c2.45,3.16,4.8,6.19,7.14,9.22c0.37,0.48,0.68,1,1.32,1.93c-8.31,1.29-8.32-7.06-13.52-9.89
			c0,2.58,0,5.16,0,7.73c0,1.2-0.15,2.25-1.71,2.34c-1.63,0.09-2.33-0.68-2.33-2.27c0.01-7.38-0.01-14.76,0-22.14
			c0-0.99,0.2-1.87,1.19-2.43c3.29-1.87,12.37,0.47,14.03,3.64c2.2,4.23,0.02,8.61-5.56,11.19
			C21.29,114.86,21.22,115.04,20.88,115.46z M17.63,103.45c-3.13-0.34-1.59,2.79-1.76,4.68c-0.16,1.84-0.54,4.3,2.63,3.78
			c2.44-0.4,4.87-1.41,4.96-4.35C23.56,104.48,21.33,103.58,17.63,103.45z"/>
		<path class="st3" d="M167.4,123.24c0-3.21,0.03-6.42-0.02-9.64c-0.02-1.06,0.47-2.48-0.7-3.06c-1.18-0.57-2.8-0.78-1.99-2.47
			c0.62-1.29,2.36-1.08,3.51-0.84c2.85,0.58,5.39,0.61,8.27-0.55c2.67-1.07,5.37,0.49,6.99,2.99c4.41,6.8,0.42,16.56-7.5,17.42
			c-3.92,0.43-4.83,1.83-4.54,5.32c0.12,1.47,0.99,3.9-1.99,3.9c-3.03,0-1.9-2.43-1.97-3.92C167.29,129.35,167.4,126.3,167.4,123.24
			z M171.4,118.38c0.36,2.43-0.93,5.43,3.12,5.44c3.48,0.01,6.3-2.72,6.22-6.94c-0.05-2.69,0-6.57-3.94-6.43
			C171.82,110.62,172.15,115.19,171.4,118.38z"/>
		<path class="st4" d="M124.07,73.4c2.51-0.16,4.66-3.71,6.84-0.02c0.77,1.3,1.51-0.26,2.14-0.64c3.08-1.84,5.37-0.61,8.34,0.89
			c2.04,1.03,4.8-3.26,8.05-1.59c1.81,0.93,3.28,2.27,3.38,4.35c0.18,3.84,0.06,7.69,0.08,11.54c0.01,1.33-0.46,2.07-1.95,2.06
			c-1.51-0.01-1.92-0.8-1.92-2.1c0-2.89-0.04-5.77-0.01-8.66c0.02-1.91-0.4-3.78-2.53-3.96c-1.91-0.15-3.43,1.3-3.76,3.13
			c-0.45,2.49-0.31,5.09-0.58,7.62c-0.17,1.51,1.02,3.98-2.01,3.89c-2.66-0.07-1.58-2.31-1.67-3.67c-0.17-2.39-0.11-4.81-0.03-7.21
			c0.06-1.82-0.54-3.38-2.28-3.75c-1.95-0.41-3.47,0.99-4.13,2.64c-1.07,2.69-1.19,5.59-1.13,8.49c0.02,1.25,0.76,3.32-1.44,3.42
			c-2.7,0.11-1.59-2.23-1.72-3.58c-0.18-1.91-0.15-3.85-0.02-5.77C127.92,77.51,127.82,74.77,124.07,73.4z"/>
		<path class="st5" d="M126.85,113c0-1.29-0.11-2.58,0.02-3.85c0.29-2.98-1.51-7.16,0.82-8.68c3.07-2.01,7.46-0.58,11.29-0.61
			c1.24-0.01,2.19,0.73,2.12,2.1c-0.08,1.59-1.37,1.52-2.5,1.55c-1.12,0.03-2.25,0.07-3.37,0c-2.62-0.17-4.5-0.11-4.42,3.64
			c0.07,3.59,1.43,4.48,4.57,4.12c1.11-0.13,2.25,0,3.37,0.03c1.25,0.03,1.58,0.81,1.58,1.91c0,1.13-0.41,1.84-1.63,1.86
			c-0.64,0.01-1.29,0-1.93,0.05c-2.71,0.21-6.06-1.37-5.98,4.01c0.07,5.6,3.76,3.29,6.26,3.77c0.62,0.12,1.29,0.01,1.92,0.08
			c1.27,0.13,2.11,0.8,2.15,2.13c0.04,1.59-1.16,1.73-2.32,1.74c-3.21,0.03-6.43-0.04-9.64,0.03c-2.03,0.04-2.34-1.13-2.32-2.78
			C126.88,120.39,126.85,116.7,126.85,113z"/>
		<path class="st5" d="M60.06,89.56c-0.05-0.1-0.41,0.45-1.45,0.39c-1.16-0.07-2.84,0.71-3.19-1.14c-1.19-6.28-6.2-3.23-9.58-3.87
			c-2.27-0.43-1.95,2.15-2.57,3.42c-0.7,1.45-1.65,1.91-3.02,1.55c-2.11-0.55-0.95-1.9-0.57-2.99c2.12-6.01,4.22-12.02,6.43-17.99
			c0.53-1.43,0.96-3.04,3.14-3.08c2.41-0.05,2.72,1.6,3.33,3.29C54.88,75.59,57.28,82.01,60.06,89.56z M52.47,81.16
			c-1.04-3.1-1.61-5.88-3.39-8.32c-1.45,2.64-2.31,5.34-2.97,8.32C48.11,81.16,50,81.16,52.47,81.16z"/>
		<path class="st4" d="M59.76,73.57c2.37-0.61,4.38-3.72,6.59-0.15c0.72,1.16,1.53-0.46,2.27-0.8c4.34-2,7.35-0.84,9.2,3.64
			c2.78,6.71-0.8,13.1-8,13.85c-2.29,0.24-3.19,0.93-2.94,3.18c0.09,0.79,0.01,1.61,0.01,2.41c-0.01,1.49,0.05,3.03-2.14,2.94
			c-2.03-0.09-1.62-1.65-1.63-2.84c-0.04-5.31-0.14-10.62,0.03-15.92C63.24,77.12,63.05,74.79,59.76,73.57z M66.88,82.57
			c0.51,1.62-1.4,4.8,2.68,4.52c3.82-0.27,5.11-2.81,5.12-6.17c0.01-2.59-0.22-5.66-3.74-5.42C66.8,75.79,66.95,79.33,66.88,82.57z"
			/>
		<path class="st4" d="M101.56,127.02c-3-0.56-5.87-0.81-9.01,0.38c-2.47,0.94-5.16-0.86-6.04-3.56c-0.85-2.62,0.06-5.17,2.46-6.72
			c1.87-1.21,3.93-2.12,6.29-2.05c1.37,0.04,2.66-0.29,2.52-2.1c-0.11-1.44-0.91-2.45-2.38-2.59c-1.74-0.16-3.52-0.39-5.19,0.48
			c-1.27,0.66-2.24,0.21-2.64-1.08c-0.43-1.4,0.6-1.91,1.71-2.4c7.28-3.23,12.45,0.19,12.71,8.12c0.11,3.26-1.56,6.9,2.99,9.51
			C106.56,125.93,102.95,126.39,101.56,127.02z M97.63,119.67c0.1-1.53-0.97-1.73-1.86-1.49c-2.19,0.59-4.99,0.71-5.33,3.68
			c-0.17,1.42,1.26,2.04,2.68,1.92C95.73,123.57,96.78,121.66,97.63,119.67z"/>
		<path class="st4" d="M187.67,117.13c0.02-5.87,2.39-9.34,7.14-10.48c4.03-0.97,8.11,1.45,9.38,5.44c1.06,3.32,0.62,5.38-3.53,4.98
			c-1.43-0.14-2.93-0.25-4.31,0.04c-1.58,0.33-4.48-1.42-4.43,1.75c0.03,2.41,1.58,4.6,4.44,4.88c1.57,0.16,3.2,0.32,4.72-0.45
			c1.11-0.56,2.29-0.7,2.77,0.72c0.54,1.57-0.52,2.19-1.87,2.74C194.12,129.95,187.64,125.63,187.67,117.13z M196.32,114.17
			c1.26-0.51,3.61,0.95,3.64-1.61c0.02-1.91-1.77-2.3-3.48-2.3c-1.96,0-3.8,0.78-3.68,2.73
			C192.93,114.99,195.11,113.71,196.32,114.17z"/>
		<path class="st6" d="M382.95,145.96c2.51-3.7,5.9-4.48,9.99-3.07c1.1,0.38,2.48,0.5,1.48,2.22c-0.59,1.02-1.13,2.2-2.61,1.04
			c-1.34-1.05-2.7-1.97-4.57-0.15c1.3,1.52,3.19,1.61,4.77,2.26c1.93,0.8,3.92,2,3.45,4.26c-0.45,2.17-2.63,2.8-4.78,2.78
			c-7.23-0.06-14.45-0.13-21.68-0.2c0-0.68,0-1.36-0.01-2.05c2.13-1.66,0.85-4.03,1.27-6.04c0.37-1.77-1.4-5.3,2.36-4.56
			c3.54,0.7,9.15-3.71,10.42,3.59c-2.27-0.3-4.34-1.73-6.77-1.21c-0.78,0.17-1.8-0.01-1.94,1.1c-0.16,1.33,0.87,1.7,1.9,1.76
			c0.98,0.05,1.99-0.06,2.96-0.26c0.98-0.2,1.68-0.03,1.79,1.03c0.15,1.44-0.94,1.52-1.96,1.59c-1.7,0.27-4.71-1.53-4.61,1.67
			c0.07,2.39,2.94,1.25,4.58,1.35c3.49,0.2,6.96-2.59,10.54-0.02c0.5,0.36,1.73,0.06,1.99-0.94c0.28-1.05-0.58-1.5-1.36-1.73
			c-2.55-0.74-5.19-1.28-6.99-3.51C383.19,146.55,383.11,146.25,382.95,145.96z"/>
		<path class="st3" d="M30.26,117.18c0-8.34,5.88-12.89,12.58-9.75c1.68,0.79,2.92,2.04,3.6,3.7c1.64,4.03,0.36,5.87-3.99,5.91
			c-1.28,0.01-2.6-0.19-3.84,0.05c-1.49,0.28-4.03-1.26-4.23,1.45c-0.17,2.33,1.41,4.34,3.75,5.04c1.65,0.5,3.52,0.53,5.19-0.26
			c1.47-0.71,2.65-0.39,3.03,1.13c0.42,1.69-1.03,1.93-2.29,2.38C37.37,129.2,29.3,126.2,30.26,117.18z M38.9,114.24
			c1.02-0.7,3.33,0.77,3.48-1.21c0.14-1.89-1.7-2.84-3.74-2.79c-1.76,0.04-3.48,0.41-3.36,2.49
			C35.41,115.04,37.53,113.68,38.9,114.24z"/>
		<path class="st3" d="M67.97,118.06c0,1.12,0.23,2.31-0.05,3.36c-0.49,1.84,1.7,5.27-2.01,5.22c-3.27-0.04-1.5-3.23-1.74-4.99
			c-0.29-2.21-0.05-4.48-0.08-6.73c-0.03-1.96-0.11-4.13-2.54-4.53c-2.62-0.43-4.29,1.29-4.98,3.58c-0.92,3.07-1.11,6.29-0.98,9.52
			c0.06,1.56,0.3,3.45-2.24,3.3c-2.24-0.13-1.77-1.88-1.79-3.22c-0.05-3.21,0-6.42-0.03-9.63c-0.02-1.66,0.57-3.65-2.2-3.87
			c-0.83-0.07-1.29-0.97-1.08-1.84c0.24-1,1.2-0.9,1.96-0.93c4.03-0.18,7.99,0.29,12.12-0.63c3.15-0.7,5.63,1.82,5.63,5.61
			C67.97,114.21,67.96,116.13,67.97,118.06z"/>
		<path class="st7" d="M871.15,140.84c0-2.66,0.28-5.35-0.06-7.96c-0.56-4.24,1.44-7.99,5.11-7.88c7.89,0.22,11.43,5.89,11.04,11.82
			c-0.28,4.29-2.61,7.27-6.77,7.15c-5.24-0.15-6.21,2.21-5.54,6.53c0.08,0.48,0,0.99-0.02,1.49c-0.04,1.12-0.48,1.91-1.72,1.99
			c-1.55,0.1-2.03-0.84-2.03-2.17c-0.01-3.65,0-7.31,0-10.96C871.16,140.84,871.16,140.84,871.15,140.84z M874.9,135.99
			c0.33,2.18-1.1,5.4,3.2,5.09c3.15-0.23,5.59-1.55,5.58-4.95c0-3.56-2.88-7.48-5.79-7.81C873.85,127.86,875.22,134,874.9,135.99z"
			/>
		<path class="st3" d="M144.09,107.83c3.89-1.56,5.98-0.17,7.29,2.58c1.74,3.64,3.22,2.64,4.64-0.12c1.24-2.41,2.9-3.81,5.78-2.84
			c0.68,0.62,0.15,1.23-0.21,1.6c-4.92,5.14-5.82,10.23,0.03,15.35c0.57,0.5,1.21,1.39,0.44,2.03c-0.52,0.43-1.51,0.45-2.28,0.42
			c-3.9-0.14-3.77-4.43-6.58-6.13c-2.85,1.55-2.89,7.99-9.35,5.47C151.06,120.22,151.45,113.9,144.09,107.83z"/>
		<path class="st3" d="M93.62,90.1c-2.96-0.32-5.46-0.79-8.15-0.02c-2.46,0.71-4.93-0.22-5.77-2.97c-0.82-2.66,0.61-4.74,2.78-6.08
			c1.31-0.81,2.95-1.11,4.45-1.62c1.14-0.38,3.35,0.84,3.03-1.72c-0.26-2.11-2.03-2.71-3.92-2.73c-0.61-0.01-1.22,0.46-1.84,0.49
			c-1.22,0.05-2.98,1.69-3.49-0.7c-0.43-1.99,1.58-2.2,2.81-2.64c5.99-2.14,10.24,1.03,10.58,7.39c0.15,2.85-1.8,6.47,2.22,8.42
			c0.28,0.14,0.29,1.58,0.19,1.61C95.47,89.83,94.37,89.97,93.62,90.1z M89.94,83.24c-0.46-1.25-1.67-1.02-2.67-0.91
			c-2.03,0.23-3.78,1.08-3.72,3.43c0.04,1.49,1.48,1.34,2.58,1.35C88.56,87.11,89.17,85.23,89.94,83.24z"/>
		<path class="st4" d="M170.62,73.71c2.95-1.08,4.95-3.07,7.22-0.89c1.27,1.22,1.98-0.01,2.91-0.38c4.82-1.92,8.35,0.04,8.78,5.17
			c0.28,3.34,0.05,6.72,0.06,10.08c0,1.19-0.12,2.2-1.72,2.29c-1.81,0.1-2.14-0.89-2.12-2.37c0.03-2.88,0-5.76-0.01-8.65
			c-0.01-1.54-0.41-2.93-2.02-3.45c-1.8-0.57-3.09,0.4-4.09,1.77c-2.06,2.81-1.43,6.09-1.57,9.24c-0.06,1.42,0.71,3.49-1.99,3.43
			c-2.7-0.06-1.78-2.16-1.86-3.54c-0.13-2.23-0.01-4.48-0.04-6.72C174.11,77.27,175.08,74.39,170.62,73.71z"/>
		<path class="st8" d="M73.62,116.53c-0.8-1.79,2.38-6.03-3.12-6.67c-0.96-0.11-0.69-2.18,0.08-2.27c3.07-0.35,3.46-2.17,3.21-4.65
			c-0.23-2.27,1.69-2.76,3.12-2.86c2.24-0.16,1.65,1.89,1.64,3.16c-0.03,2.25-0.07,4.27,3.12,3.99c1.08-0.09,1.84,0.48,1.71,1.74
			c-0.1,1.01-0.83,1.38-1.67,1.28c-3.17-0.4-3.27,1.55-3.15,3.85c0.1,1.92,0.05,3.85,0.01,5.77c-0.05,2.1,0.16,3.96,2.95,3.86
			c1.09-0.04,1.89,0.22,1.9,1.53c0,1.41-0.86,1.99-2.1,2.14c-3.58,0.43-6.46-0.49-7.28-4.43C73.66,121.1,73.77,119.14,73.62,116.53z
			"/>
		<path class="st9" d="M230.46,127.46c-3.67,0.03-5.77-1.82-6.04-5.43c-0.2-2.72-0.04-5.47-0.06-8.2c-0.01-1.72,0.4-3.41-2.4-3.7
			c-2.36-0.24-2.06-2.36-0.24-2.67c2.89-0.49,2.81-2.2,2.62-4.13c-0.25-2.53,1.58-3.14,3.25-3.25c1.8-0.12,1.6,1.67,1.54,2.89
			c-0.12,2.47-0.04,4.6,3.38,4.29c0.89-0.08,1.43,0.59,1.44,1.54c0,0.99-0.6,1.54-1.49,1.43c-3.51-0.42-3.4,1.84-3.31,4.23
			c0.08,2.09,0.02,4.18,0.02,6.27c0,1.63,0.53,2.92,2.37,2.98c1.41,0.05,2.74,0.05,2.38,1.98
			C233.54,127.65,231.86,127.35,230.46,127.46z"/>
		<path class="st4" d="M163.95,90.28c-4.36,0.27-7.42-1.29-8.62-5.79c-1.25-4.67,0.43-9.66,4.08-11.78c3.44-2,7.5-1.11,9.7,2.14
			c1.13,1.67,1.75,3.6,0.97,5.44c-0.81,1.91-2.81,0.79-4.28,1.01c-0.94,0.14-1.96-0.16-2.86,0.07c-1.27,0.33-3.61-1.29-3.62,1.48
			c-0.01,1.99,0.97,3.78,3.24,4.16c1.25,0.21,2.58-0.1,3.82,0.13c1.03,0.19,2.95-2.01,3.04,0.98c0.07,2.31-1.76,1.76-3.07,1.94
			C165.54,90.16,164.74,90.21,163.95,90.28z M166.83,78.4c-1.52-2.69-2.51-4.49-5.09-3.21c-0.92,0.46-2.44,1.55-1.77,2.36
			C161.58,79.48,163.96,78.09,166.83,78.4z"/>
		<path class="st9" d="M241.53,127.71c-1.86-0.26-4.25,0.12-4.36-2.23c-0.14-3.08,2.5-1.43,3.93-1.64c1.71-0.25,3.85,0.26,4.35-2.01
			c0.55-2.49-1.75-2.57-3.31-3.23c-4.56-1.9-6.31-4.74-4.94-7.9c1.25-2.9,6.77-5.18,9.95-4.02c0.98,0.36,2.3,0.65,2.14,2.17
			c-0.17,1.63-1.48,1.38-2.56,1.43c-0.96,0.04-1.93,0.01-2.89,0.04c-1.03,0.03-1.9,0.35-2.15,1.5c-0.28,1.29,0.25,2.16,1.47,2.63
			c0.45,0.17,0.86,0.43,1.32,0.56c3.52,0.97,6.61,2.69,5.77,6.86C249.34,126.41,245.32,127.22,241.53,127.71z"/>
		<path class="st7" d="M935.11,144.82c-0.06,5.87-3.82,10.21-8.73,10.08c-4.92-0.13-8.48-4.59-8.36-10.46
			c0.12-5.86,3.4-9.49,8.57-9.51C932.11,134.91,935.17,138.47,935.11,144.82z M921.79,144.53c0.05,3.59,0.54,7.11,4.69,7.12
			c4.4,0.01,5.06-3.86,5.07-7.22c0.01-3.2-0.72-6.73-5.06-6.54C922.25,138.09,921.86,141.45,921.79,144.53z"/>
		<path class="st10" d="M954.86,142.9c0-1.83-0.19-3.69,0.04-5.49c0.52-4.11-0.53-6.47-5.28-5.68c-1.26,0.21-2.99-2.78-3.03-4.65
			c-0.05-2.26,1.89-1.9,3.31-1.91c4.66-0.04,9.33-0.03,13.99,0c1.28,0.01,2.91-0.26,3.03,1.68c0.12,1.96-1.48,5.12-2.78,4.88
			c-5.29-0.98-5.91,1.72-5.52,6.11c0.39,4.46,0.09,8.99,0.04,13.48c-0.02,1.41-0.34,2.75-2.19,2.65c-1.68-0.09-1.59-1.42-1.61-2.57
			C954.84,148.57,954.87,145.73,954.86,142.9z"/>
		<path class="st11" d="M964,144.67c0.08-4.41,1.97-7.81,6.2-9.27c3.51-1.21,6.91-0.67,9.48,2.44c1.48,1.79,2.12,3.92,1.3,6.04
			c-0.79,2.03-2.89,0.99-4.43,1.16c-1.31,0.15-2.68-0.14-3.98,0.07c-1.58,0.27-4.14-1.21-4.51,1.48c-0.37,2.67,1.68,4.17,4.06,4.93
			c0.75,0.24,1.63,0.06,2.45,0.15c1.55,0.16,3.82-2.97,4.43,0.04c0.53,2.6-2.87,2.71-4.73,3.04
			C968.84,155.75,963.92,150.75,964,144.67z M972.67,142.94c1.55-0.99,4.81,1.52,4.95-1.91c0.09-2.29-2.35-3.31-4.73-3.23
			c-2.35,0.07-4.66,1.1-4.62,3.45C968.31,143.97,971.1,142.2,972.67,142.94z"/>
		<path class="st12" d="M905.16,144.49c0.03,5.98-3.42,10.28-8.35,10.4c-4.88,0.12-8.64-4.25-8.7-10.11
			c-0.06-5.87,3.54-9.92,8.75-9.85C902.16,135,905.12,138.4,905.16,144.49z M901.84,144.38c-0.46-3.27-1.05-6.7-5.32-6.47
			c-4.22,0.23-4.6,3.68-4.63,6.99c-0.04,3.4,0.62,6.84,4.8,6.77C901.06,151.58,901.43,147.78,901.84,144.38z"/>
		<path class="st13" d="M1036.82,144.78c-0.21-4.54,1.82-7.9,5.98-9.39c3.68-1.32,7.26-0.53,9.88,2.77
			c1.33,1.67,1.86,3.67,1.15,5.63c-0.77,2.11-2.85,1.1-4.39,1.25c-1.48,0.14-3.03-0.17-4.48,0.09c-1.53,0.27-4.15-1.35-4.34,1.52
			c-0.15,2.27,1.58,4.03,3.78,4.78c1.03,0.35,2.27,0.16,3.41,0.13c1.38-0.04,3.38-2.52,3.95,0.35c0.41,2.05-2.23,2.12-3.68,2.55
			C1042.12,156.24,1036.79,151.59,1036.82,144.78z M1045.36,142.96c1.58-0.91,4.77,1.43,4.92-2.04c0.09-2.09-2.09-3.13-4.32-3.16
			c-2.61-0.03-5.08,1.15-5.09,3.58C1040.86,143.97,1043.77,142.23,1045.36,142.96z"/>
		<path class="st14" d="M200.3,90.16c-3.53,0.33-4.49-1.31-5.39-3.97c-1.29-3.86,2.06-8.99-3.21-11.78
			c-0.41-0.22-0.2-1.71,0.75-1.89c2.19-0.42,2.13-1.95,2.14-3.62c0.01-1.57,0.6-2.88,2.42-2.99c2.16-0.13,2.15,1.44,2.1,2.93
			c-0.06,1.84-0.15,3.62,2.53,3.56c1.05-0.02,1.98,0.6,1.85,1.7c-0.13,1.08-1.14,1.4-2.19,1.42c-3.32,0.08-2.28,2.73-2.07,4.24
			c0.34,2.43-1.8,5.54,1.51,7.23c1.1,0.56,3.42-0.31,2.77,2.05C203.05,90.72,201.06,89.99,200.3,90.16z"/>
		<path class="st9" d="M119.54,90.21c-3.64,0.16-5.41-1.3-5.26-4.8c0.08-1.75,0.01-3.52,0.01-5.27c0-0.8-0.17-1.64,0.02-2.39
			c0.81-3.15-5.34-1.53-3.43-4.71c0.9-1.5,4.21-1.28,3.48-4.5c-0.31-1.38,0.5-2.5,2.11-2.58c2.1-0.11,1.65,1.51,1.68,2.68
			c0.03,1.82-0.11,3.64,2.51,3.71c0.92,0.03,2.07,0.04,2.16,1.33c0.11,1.52-1.03,1.89-2.22,1.82c-2.86-0.16-2.69,1.93-2.35,3.55
			c0.56,2.68-2.06,6.25,2.01,7.97c1.04,0.44,2.98-0.25,2.57,1.82C122.43,90.8,120.51,89.93,119.54,90.21z"/>
		<path class="st7" d="M983.09,153.36c0.55-0.87,0.94-1.81,1.61-2.48c4.13-4.1,5.06-8.2,0.36-12.58c-0.7-0.65-2.01-1.85-0.42-2.85
			c1.11-0.7,2.24-0.03,3.01,0.99c0.7,0.93,1.43,1.85,2.06,2.82c1.18,1.81,2.1,1.62,3.27-0.11c1.31-1.94,2.36-4.55,6.66-3.48
			c-7.33,6.14-6.31,12.02,0.41,17.52c-2.36,1.25-4,1.12-4.89-0.52c-2.56-4.7-4.89-5.62-7.64-0.14
			C986.68,154.22,985.06,154.6,983.09,153.36z"/>
		<path class="st0" d="M112.4,112.28c0,4,0,7.99,0,11.99c0,1.38-0.18,2.56-2.01,2.55c-1.8-0.01-2.04-1.17-2.04-2.56
			c-0.01-6.39,0.01-12.79-0.04-19.18c-0.01-1.36,0.43-2.84-1.1-3.91c-0.83-0.58-3.22-0.21-2.11-2.23c1.15-2.09,3.45-1.02,5.27-1.16
			c1.79-0.14,2.03,1.11,2.03,2.51C112.4,104.28,112.4,108.28,112.4,112.28z"/>
		<path class="st15" d="M1063.54,134.97c0.32,0.06,1.33,0.13,2.26,0.45c0.88,0.31,2.06,0.61,1.67,2c-0.36,1.29-1.22,1.25-2.32,0.86
			c-1.8-0.64-4.12-1.03-4.68,1.16c-0.64,2.48,2.04,2.93,3.74,3.85c3.31,1.79,6,4.05,3.9,8.29c-1.51,3.07-6.28,4.11-9.68,2.43
			c-1.11-0.55-2.14-0.96-1.54-2.53c0.64-1.67,1.63-1.19,2.76-0.59c1.88,1,4.07,1.74,5.09-0.76c1-2.46-1.3-3.41-3.05-4.35
			c-2.83-1.52-5.92-2.98-4.97-6.99C1057.44,135.68,1059.93,134.8,1063.54,134.97z"/>
		<path class="st12" d="M340.93,154.97c-5.51,2.04-6.47-3.95-9.73-5.75c-0.39,0.35-0.64,0.53-0.82,0.76
			c-1.24,1.54,2.16,5.53-2.19,5.1c-3.14-0.3-1.35-3.55-1.25-5.24c0.13-2.34-2.11-5.8,1.13-6.94c3.24-1.14,4.52,2.59,6.45,4.47
			c0.67,0.66,0.85,1.85,2.39,1.91c0.68-2.01,0.32-4.1,0.17-6.17c1.48-0.12,3.07-0.74,4.17,0.89c-0.03,0.63-0.07,1.26-0.1,1.9
			C341.06,148.93,340.99,151.95,340.93,154.97z"/>
		<path class="st3" d="M208.88,107.19c2.6-0.27,5.07,1.45,7.45-0.51c0.71-0.58,1.94-0.28,2.18,1c0.18,0.93,0.38,2.23-0.67,2.55
			c-6.22,1.9-4.76,7.02-5.14,11.5c-0.15,1.75,1.52,4.9-1.83,4.94c-3.76,0.05-1.88-3.33-2.09-5.19c-0.3-2.69-0.04-5.45-0.09-8.17
			c-0.02-1.05,0.4-2.39-1.06-2.86c-1.18-0.38-2.97-0.33-2.34-2.17C205.87,106.53,207.8,107.55,208.88,107.19z"/>
		<path class="st16" d="M1010.15,154.95c-3.38-0.27-5.55-2.07-6.13-5.76c-0.64-4.08,1.36-8.42-1.71-12.41
			c-0.58-0.75,1.7-6.77,2.8-8.66c0.27-0.45,1.73-0.57,1.66-0.2c-0.95,4.83,4.87,6.19,5.71,9.16c0.05,0.18-0.61,0.73-1.02,0.84
			c-1.59,0.45-4.09-0.48-4.08,2.4c0.01,3.29-0.74,6.67,0.74,9.83c0.54,1.15,1.6,1.7,2.87,1.56c1.34-0.15,3.01-0.62,2.67,1.55
			C1013.4,154.87,1011.7,154.76,1010.15,154.95z"/>
		<path class="st17" d="M403.28,148.62c0.42-1.55-1.26-4.65,0.92-5.44c3.16-1.14,6.86-1.11,10.18,0.12
			c1.73,0.64,2.13,2.42,1.82,4.21c-0.38,2.17-2.9,4.37,0.1,6.52c0.06,0.04-0.27,1.01-0.53,1.07c-1.14,0.28-2.25,0.3-3.12-0.81
			c-1.92-2.44-3.91-6.52-5.78,0.07c-0.27,0.94-1.28,0.9-2.11,0.81c-0.93-0.11-1.47-0.66-1.48-1.63
			C403.27,152.05,403.28,150.56,403.28,148.62z M412.77,146.9c-0.02-1.75-1.21-2.1-2.67-2.07c-1.3,0.02-2.79-0.2-3,1.72
			c-0.18,1.66,0.59,2.46,2.27,2.44C410.91,148.98,412.43,148.99,412.77,146.9z"/>
		<path class="st6" d="M1027.29,139.44c0-2.98,0-8.97,0.01-11.95c0.01-1.44,0.28-2.75,2.14-2.6c1.6,0.14,1.58,1.45,1.58,2.61
			c0.02,4.81,0,12.61,0.02,17.42c0.01,2.44-0.5,5.02,2.27,6.59c0.97,0.55,1.06,1.74,0.49,2.64c-0.73,1.16-1.74,0.44-2.62,0.08
			c-3.09-1.25-3.89-3.82-3.9-6.84C1027.28,144.74,1027.28,142.09,1027.29,139.44z"/>
		<path class="st18" d="M101.42,71.6c1.9,1.66,3.99,1.26,6.19,0.19c0.71-0.35,1.55,0.22,1.72,1.2c0.15,0.87-0.09,1.88-0.81,2.11
			c-5.95,1.89-4.54,6.86-4.88,11.17c-0.11,1.37,0.95,3.55-1.72,3.68c-3.09,0.15-1.98-2.3-2.07-3.8c-0.15-2.56,0-5.14-0.07-7.71
			c-0.02-0.92-0.16-1.9-0.5-2.75c-0.43-1.07-2.93-0.84-2.07-2.64C97.93,71.54,99.91,72.46,101.42,71.6z"/>
		<path class="st19" d="M343.06,145.03c3.61-2.72,7.57-3.07,11.73-1.64c0.76,0.26,2.27,0.42,1.53,1.88
			c-0.54,1.06-1.52,2.05-2.73,0.83c-1.37-1.38-2.94-1.36-4.6-1.12c-1.85,0.26-2.88,1.49-3.44,3.18c-0.48,1.47,0.18,2.65,1.24,3.5
			c1.46,1.17,3.16,1.85,5.09,1.27c0.68-0.2,1.14-0.7,0.98-1.47c-0.24-1.14-1.08-0.99-1.92-0.83c-0.79,0.15-1.75,0.47-1.87-0.79
			c-0.13-1.35,0.92-1.77,1.93-1.61c2.15,0.33,5.38-1.58,5.88,2.48c0.45,3.72-2.14,4.37-5,4.58c-3.21,0.24-6.31,0.02-8.85-2.32
			C341.36,150.31,341.97,147.67,343.06,145.03z"/>
		<path class="st20" d="M323.18,155.24c-0.86,0.01-1.52-0.32-2.18-0.93c-2.54-2.35-5.18-2.46-7.68,0.07
			c-0.97,0.98-2.18,1.21-3.15,0.64c-1.53-0.9-0.19-2.05,0.26-2.93c1.35-2.65,2.74-5.29,4.33-7.79c1.52-2.38,3.62-2.48,5.11-0.12
			c1.76,2.78,3.04,5.87,4.54,8.82C325.15,154.4,324.85,155.19,323.18,155.24z M318.57,149.26c-0.31-0.71-0.43-1.77-1.47-1.58
			c-0.46,0.08-0.96,0.88-1.11,1.44c-0.27,1.04,0.4,1.52,1.39,1.43C318.08,150.48,318.59,150.09,318.57,149.26z"/>
		<path class="st7" d="M432.09,152.03c1.51-2.52,2.92-5.11,4.57-7.53c1.91-2.81,3.97-2.67,5.62,0.28c1.68,3.01,3.19,6.11,4.78,9.17
			c-1.01,1.69-2.59,0.91-3.98,0.93c-1.93-3.68-4.87-2.5-7.24-0.99c-1.33,0.84-2.29,1.61-3.84,1.12c-0.04-0.43-0.08-0.86-0.11-1.29
			C431.95,153.15,432.02,152.59,432.09,152.03z M439.33,150.59c0.91-0.22,1.56-0.7,1.09-1.71c-0.24-0.52-0.87-1.25-1.27-1.21
			c-0.96,0.07-1.24,1.02-1.22,1.86C437.96,150.31,438.58,150.6,439.33,150.59z"/>
		<path class="st7" d="M503.07,152.71c0.81,0.14,1.62,0.32,2.43,0.43c4.55,0.62,7.49-0.31,6.5-5.97c-0.27-1.55-1.24-4.56,2.14-4.37
			c3.26,0.18,7.22-1.79,9.56,2.04c1.68,2.76-0.33,5.77-4.05,6.23c-2.11,0.26-3.95-0.24-4.44,3.1c-0.33,2.27-3.37,0.6-5.16,0.91
			C508.3,152.57,504.69,155.56,503.07,152.71z M517.63,144.82c-1.29,0.01-2.33,0.31-2.3,1.91c0.03,1.71,1.01,2.31,2.59,2.26
			c1.52-0.04,2.78-0.64,2.69-2.25C520.52,145.06,519.03,144.85,517.63,144.82z"/>
		<path class="st21" d="M431.89,153.71c0.04,0.43,0.08,0.86,0.11,1.29c-1.64,0.1-3.28,0.26-4.92,0.28
			c-8.31,0.09-7.98,0.05-8.53-8.32c-0.28-4.24,1.56-4.97,4.68-4.19c2.64,0.66,7.07-2.84,7.72,2.99c-1.27,0.54-2.17-0.52-3.26-0.72
			c-1.62-0.3-3.31-0.52-4.87,0.25c-0.26,0.13-0.48,0.97-0.32,1.23c1.14,1.81,2.9,1.12,4.48,0.91c1.04-0.14,2.05-0.42,2.1,1.11
			c0.04,1.45-0.98,1.46-2.04,1.39c-0.66-0.05-1.33-0.09-1.99-0.05c-1.1,0.07-2.57-0.26-2.72,1.4c-0.18,2.09,1.51,1.73,2.77,1.84
			C427.36,153.32,429.72,152.31,431.89,153.71z"/>
		<path class="st22" d="M912.19,139.57c0.86,3.84-2.07,9.17,3.08,12.7c0.28,0.19,0.19,1.29-0.06,1.8c-0.45,0.92-1.34,0.75-2.16,0.42
			c-2.3-0.93-4.09-2.3-4.1-5.06c-0.03-6.32-0.03-15.64-0.02-21.96c0-1.16-0.05-2.53,1.62-2.53c1.66,0,1.63,1.36,1.64,2.52
			C912.21,130.3,912.19,136.12,912.19,139.57z"/>
		<path class="st23" d="M143.57,143.96c-2.59,1.66-2.56,4.68-4.16,7.14c-1.89-2.36-0.43-4.68-0.4-6.96
			c-3.06,0.77-3.07,3.24-3.82,5.24c-0.27,0.72-0.77,1.59-1.74,1.25c-1.06-0.36-0.64-1.21-0.37-1.97c0.21-0.6,0.44-1.23,0.45-1.85
			c0.03-1.5-0.29-4.26-0.07-4.3c2.25-0.41,4.58-0.41,6.89-0.43c0.56,0,1.33,0.71,1.65,0.51c1.62-0.99,3.43-2.05,4.16,0.53
			c0.63,2.24,0.4,4.73-0.85,6.89c-0.19,0.33-0.76,0.62-1.15,0.61c-0.87-0.03-0.93-0.84-0.79-1.41
			C143.78,147.58,144.72,146,143.57,143.96z"/>
		<path class="st24" d="M475.01,144.98c-5.22-0.69-8.11,0.88-6.95,6.82c0.24,1.25,0.67,3.31-1.69,3.35c-2.6,0.05-1.6-2.24-2.2-3.58
			c-0.92-2.05,2.97-6.98-3.36-5.99c-0.11,0.02-0.59-1.08-0.56-1.64c0.05-0.96,0.83-1.38,1.73-1.37c4.75,0.07,9.51,0.18,14.26,0.28
			C475.32,143.27,475.04,144.05,475.01,144.98z"/>
		<path class="st2" d="M91.14,145.03c-1.13,0.25-1.2,1.37-1.72,2.12c-0.88,1.25-0.89,3.54-2.74,3.57c-2.39,0.04-1.64-2.7-2.67-3.93
			c-1.85,0.71-1.5,5.12-3.84,3.59c-2.29-1.5-1.88-5.08-1.33-7.95c2.77-0.22,0.87,2.85,2.66,3.26c1.81-0.51,1.1-3.95,3.72-3.47
			c1.96,0.36,0.43,2.62,1.73,3.55c2.09-0.49,1.42-3.52,3.63-4.01c1.44,0.88,0.08,2.27,0.51,3.33L91.14,145.03z"/>
		<path class="st25" d="M1022.1,144.78c-0.01,2.31,0.01,4.62-0.02,6.93c-0.01,1-0.12,2.07-1.43,2.18c-1.64,0.15-1.85-1.03-1.86-2.26
			c-0.02-3.14,0.02-6.27-0.05-9.41c-0.03-1.27,0.48-2.71-0.64-3.75c-0.76-0.71-2.53-0.78-1.72-2.39c0.74-1.47,2.32-0.83,3.57-0.87
			c1.78-0.05,2.15,1.15,2.14,2.62C1022.09,140.15,1022.1,142.47,1022.1,144.78z"/>
		<path class="st23" d="M118.73,144.04c-2.71,1.84-2.75,4.68-4.2,6.98c-1.75-1.4-1.12-2.92-0.89-4.38c0.39-2.45,0.88-4.91,0.99-7.38
			c0.04-0.91-0.06-1.5,0.91-1.7c1.31-0.27,1.69,0.54,1.7,1.63c0.01,1.6-0.43,3.21,2.41,2.47c1.12-0.29,2.89,1.47,2.21,3
			c-0.89,1.99,0.21,4.7-1.97,6c-1,0.59-1.73-0.29-1.22-1.56C119.27,147.56,119.29,146,118.73,144.04z"/>
		<path class="st26" d="M475.01,144.98c0.03-0.93,0.32-1.71,1.22-2.14c1.25-0.21,1.67,0.62,2.19,1.54c1.31,2.32,2.76,3.25,4.48,0.24
			c1-1.76,2.44-2.62,4.51-1.33c-1.31,3.82-6.06,5.97-5.05,10.86c0.22,1.08-1.03,1.04-1.83,1.02c-0.92-0.02-1.73-0.46-1.57-1.46
			C479.57,149.9,476.36,147.87,475.01,144.98z"/>
		<path class="st27" d="M96.56,154.62c6.64-1.43,5.08-5.45,5.19-8.92c0.04-1.16-2.11-3.05,0.44-3.44c2.21-0.33,1.21,2.07,1.74,3.21
			c0.13,0.28,0.24,0.57,0.49,1.15c1.87-0.81,1.73-2.8,2.55-4.12c0.29-0.47,0.83-1.1,1.55-0.66c0.35,0.22,0.72,0.68,0.77,1.08
			c0.35,2.95-6.71,12.16-9.71,12.66C99.18,155.66,98.71,155.33,96.56,154.62z"/>
		<path class="st23" d="M19.7,138.45c0.94-0.61,2-1.49,3.06-0.7c1.74,1.3,0.23,2.9-0.01,4.91c1.52-0.29,3.57-2.38,4.31-0.1
			c0.9,2.8,0.99,5.85-1.56,8.34c-2.37-2.2,1.47-4.67-0.73-6.69c-2.14,0.4-2.28,2.41-3.01,3.88c-0.49,0.98,0.3,3.16-1.77,2.54
			c-1.65-0.49-0.1-2.14-0.26-3.28c-0.38-2.64,2.54-5.31-0.01-7.98C19.71,139.05,19.71,138.75,19.7,138.45z"/>
		<path class="st12" d="M53.29,150.79c-2.17,0.24-4.51,0.35-4.32-2.71c0.21-3.43,1.88-6.16,5.61-6.57c1.24-0.14,3.8,0.04,2.84,2.44
			C56.45,146.4,59.81,151.7,53.29,150.79z M52.23,149.63c1.61-2.38,3.01-3.7,2.6-6.05C51.87,144.49,51.12,146.11,52.23,149.63z"/>
		<path class="st2" d="M91.08,145.11c1.44-1.15,2.26-3,4.45-3.29c2.76-0.36,4.99-0.46,3.79,3.42c-0.09,0.3-0.34,0.64-0.28,0.9
			c1.34,5.08-1.9,5-5.31,4.75c-4.54-0.33-1.9-3.83-2.58-5.86C91.14,145.03,91.08,145.11,91.08,145.11z M96.77,143.62
			c-2.77,0.38-3.25,2.29-3.52,4.29c-0.03,0.22,0.73,0.82,0.9,0.75C96.27,147.73,96.89,145.99,96.77,143.62z"/>
		<path class="st28" d="M73.53,141.53c-0.42,6.94-5.36,13.44-10.49,13.68c1.29-2.16,4.15-2.85,4.09-5.92
			c-0.05-2.35-1.9-4.51-0.61-7.03c3.11,0.45,2.03,3.11,2.65,4.93C71.32,146,70.87,142.9,73.53,141.53z"/>
		<path class="st29" d="M453,153c2.08,1.56,5.74-2.41,7,2.01c-11.98,0.08-11.98,0.08-10.98-9.29c0.12-1.1-0.2-2.61,1.57-2.51
			c1.7,0.1,1.23,1.61,1.41,2.69C452.4,148.25,450.99,150.87,453,153z"/>
		<path class="st14" d="M35.34,150.62c-2.62,0-5.25,1.79-6.24-1.65c-0.8-2.78,0.34-5.23,2.93-6.81c1.84-1.12,3.52-0.73,4.5,1
			c1.15,2.03-0.94,2.62-2.08,3.57c-0.87,0.73-3.04-0.63-2.88,1.48C31.71,150.22,34.26,148.12,35.34,150.62z"/>
		<path class="st30" d="M122.97,147.4c0.06-3.72,2.13-5.68,5.26-5.79c2.09-0.07,3.83,1.47,3.44,4.13c-0.47,3.23-2.13,5.19-5.61,5.16
			C123.53,150.88,122.82,149.37,122.97,147.4z M129.55,145.61c-0.18-1.04-0.72-1.76-1.88-1.63c-1.99,0.23-2.46,1.81-2.67,3.41
			c-0.12,0.89,0.52,1.47,1.48,1.45C128.52,148.78,128.98,147.2,129.55,145.61z"/>
		<path class="st28" d="M150.22,147.75c0.11,2.65,3.11,0.16,3.58,2.42c-1.71,1.09-3.72,1.3-5.19,0.08
			c-1.47-1.22-0.77-3.35-0.44-5.03c0.41-2.11,2.22-3.1,4.08-3.66c1.38-0.42,2.54,0.57,3.16,1.66c0.87,1.53-0.68,2.17-1.5,3.08
			C152.89,147.43,150.95,146.26,150.22,147.75z"/>
		<path class="st31" d="M19.7,138.45c0.01,0.3,0.01,0.61,0.02,0.91c-3.6,1.78-4.53,5.04-4.81,8.66c-0.1,1.25,0,3.07-1.81,2.64
			c-2.21-0.53,0.2-2.12-0.27-3.1c-1.1-2.3,3.73-5.61-1.44-7.4c-1.05-0.36,0.28-1.8,1.6-1.79C15.22,138.38,17.46,138.42,19.7,138.45z
			"/>
		<path class="st27" d="M43.22,147.68c0.46,2.98,3.47,0.03,4.27,2.46c-1.85,1.18-3.86,1.25-5.63,0.11
			c-1.58-1.02-1.13-2.91-0.76-4.43c0.52-2.14,1.93-3.64,4.12-4.24c1.39-0.38,2.67,0.22,3.22,1.33c0.73,1.48-0.09,2.61-1.49,3.54
			C45.79,147.25,44.04,146.42,43.22,147.68z M45.34,143.07c-0.46,0.62-0.8,1.09-1.14,1.55c0.42,0.12,0.86,0.4,1.24,0.33
			c0.33-0.06,0.8-0.52,0.81-0.81C46.24,143.85,45.76,143.54,45.34,143.07z"/>
		<path class="st29" d="M503.07,152.71c1.62,2.85,5.23-0.14,6.96,2.37c-0.16,0.03-0.32,0.08-0.49,0.08
			c-13-0.07-9.08,2.37-9.89-10.27c-0.09-1.46,0.24-2.18,1.77-2.18c1.48-0.01,1.96,0.61,1.85,2.12
			C503.09,147.45,503.13,150.08,503.07,152.71z"/>
		<path class="st32" d="M369,153.06c0,0.68,0,1.36,0.01,2.05c-3.33,0-6.67,0-10,0c0-3.85,0-7.7,0-11.55
			c3.16,3.01,0.6,6.67,3.02,9.44C364.35,153.02,366.67,153.04,369,153.06z"/>
		<path class="st7" d="M58.87,150.92c0.21-2.44,2.31-1.4,2.89-2.59c-0.59-1.65-3.32-2.35-2.11-4.84c0.65-1.33,1.99-1.56,3.11-2.01
			c0.87-0.36,2.16,1.04,1.74,1.18c-3.88,1.28-0.8,2.92-0.53,4.56C64.63,151.32,61.7,150.86,58.87,150.92z"/>
		<path class="st33" d="M258.19,123.78c-0.22,2.4-1.39,3.66-3.33,3.74c-1.98,0.09-2.68-1.41-2.68-3.18c0-1.72,0.54-3.29,2.54-3.35
			C256.71,120.93,257.86,122.14,258.19,123.78z"/>
		<path class="st6" d="M362.02,153c-2.42-2.77,0.14-6.44-3.02-9.44c0,3.85,0,7.7,0,11.55c-2.09-3.53-0.37-7.41-1-11.09
			c-0.2-1.17,0.86-1.65,1.99-1.66c1.47-0.01,2.03,0.71,2,2.17C361.95,147.34,362.01,150.17,362.02,153z"/>
		<path class="st34" d="M161.24,145.03c-1.16-0.74-3.55,1.08-3.61-1.69c-0.04-2.19,1.77-1.22,2.74-1.21
			c1.42,0.01,3.63-0.64,3.73,1.69C164.18,145.8,162.29,144.84,161.24,145.03z"/>
		<path class="st35" d="M1022.83,125.07c-0.3,1.47-1.07,5.41-2.36,5.35c-1.27-0.06-2.16-4-2.09-5.34c0.06-1.12,0.94-1.78,2.01-1.87
			C1021.77,123.1,1022.43,124.05,1022.83,125.07z"/>
		<path class="st36" d="M491.7,154.45c-0.32,0.95-0.48,2.08-1.63,2.19c-1.19,0.11-1.58-0.93-1.8-1.87
			c-0.24-1.01,0.46-1.49,1.32-1.59C490.57,153.08,491.53,153.19,491.7,154.45z"/>
		<path class="st37" d="M341.23,144.02c-1.11-1.63-2.69-1.01-4.17-0.89C340.09,141.28,340.96,141.47,341.23,144.02z"/>
		<g>
			<g>
				<g>
					<polygon class="st38" points="535.28,0 881.08,3 881.08,184.86 535.28,181.86 					"/>
				</g>
				<g>
					<g>
						<path class="st39" d="M675.18,67.27h2.05v7.1c0,2.18,1.11,2.99,3.12,2.99c1.28,0,2.18-0.77,2.18-2.44v-7.66h1.97v7.23
							c0,2.87-1.67,4.45-4.88,4.45c-2.78,0-4.45-1.33-4.45-3.93V67.27z M697.25,78.99l-6.12-8.77v8.55h-1.88V67.31h2.05l5.82,8.51
							v-8.51h1.84v11.33L697.25,78.99z M706.06,78.73h-2.05V67.27h2.05V78.73z M709.78,67.4l2.1-0.34l3.29,9.5l3.21-9.28h2.1
							l-4.36,11.38l-2.05,0.34L709.78,67.4z M724.2,67.27h7.19l-0.17,1.54c-1.63-0.04-3.29-0.04-4.92-0.09v3.42h4.58l-0.21,1.37
							l-4.36-0.09v3.81l5.43-0.09l-0.17,1.58h-7.31V67.27H724.2z M737.76,73.98v4.75h-2.05V67.27h3.93c2.48,0,3.93,0.98,3.93,2.91
							c0,1.58-0.9,2.65-2.1,3.25l3.04,5.3h-2.31l-2.4-4.79c-0.34,0.04-0.64,0.09-0.94,0.09C738.53,74.03,738.14,73.98,737.76,73.98z
							 M741.43,70.78c0-1.37-0.77-2.1-2.52-2.1c-0.43,0-0.81,0-1.2,0.04v3.89c0.47,0.04,0.94,0.09,1.54,0.09
							C740.41,72.61,741.43,72.14,741.43,70.78z M748.15,70.18c0-1.8,1.75-3.17,4.23-3.17c1.37,0,2.65,0.17,3.46,0.43l-0.38,1.67
							c-1.11-0.38-2.31-0.64-3.64-0.64c-1.07,0-1.8,0.47-1.8,1.41c0,0.9,0.68,1.41,2.52,2.14c2.91,1.15,3.55,2.01,3.55,3.51
							c0,2.05-1.88,3.46-4.83,3.46c-1.2,0-2.52-0.21-3.38-0.47l0.38-1.71c1.15,0.43,2.44,0.73,3.89,0.73c1.03,0,1.92-0.51,1.92-1.41
							c0-0.98-0.51-1.58-2.65-2.4C749.13,72.79,748.15,71.97,748.15,70.18z M762.39,78.73h-2.05V67.27h2.05V78.73z M771.37,67.27
							c3.55,0,5.82,1.92,5.82,5.39c0,3.85-2.91,6.07-6.76,6.07h-3.04V67.27H771.37z M769.45,77.23c0.51,0.04,1.33,0.09,2.01,0.09
							c1.84,0,3.59-1.07,3.59-4.28c0-3.04-1.97-4.28-4.36-4.28h-1.28v8.47H769.45z M787.2,75.61h-4.49l-1.11,3.12h-2.05l4.41-11.42
							l2.14-0.3l4.36,11.68h-2.18L787.2,75.61z M784.93,69.19l-1.71,4.88h3.42L784.93,69.19z M798.19,67.27
							c3.55,0,5.82,1.92,5.82,5.39c0,3.85-2.91,6.07-6.76,6.07h-3.04V67.27H798.19z M796.27,77.23c0.51,0.04,1.33,0.09,2.01,0.09
							c1.84,0,3.59-1.07,3.59-4.28c0-3.04-1.97-4.28-4.36-4.28h-1.28v8.47H796.27z"/>
					</g>
					<g>
						<path class="st39" d="M690.41,111.75l-11.59-16.59v16.17h-3.55V89.64h3.89l11.03,16.08V89.64h3.51v21.43L690.41,111.75z
							 M713.89,105.38h-8.51l-2.1,5.95h-3.85l8.38-21.6l4.02-0.51l8.3,22.11h-4.11L713.89,105.38z M709.61,93.27l-3.25,9.24h6.5
							L709.61,93.27z M741.43,110.21c-1.58,0.9-4.53,1.54-6.93,1.54c-6.24,0-10.82-3.76-10.82-11.08c0-6.76,4.53-11.51,11.51-11.51
							c2.69,0,5.05,0.43,6.07,0.94l-0.94,3.04c-1.41-0.47-3.68-1.11-6.29-1.11c-3.08,0-6.33,1.84-6.33,8.04
							c0,6.54,4.11,8.68,7.91,8.68c2.01,0,4.02-0.56,5-1.15L741.43,110.21z M751.57,111.28h-3.89V89.59h3.89V111.28z M768.25,111.75
							c-5.86,0-9.92-3.93-9.92-10.86c0-7.4,4.88-11.72,11.72-11.72c5.86,0,9.92,3.98,9.92,10.91
							C780.01,107.39,775.14,111.75,768.25,111.75z M768.55,92.03c-3.42,0-6.16,2.18-6.16,7.83c0,6.46,2.99,9.02,7.4,9.02
							c3.46,0,6.2-2.14,6.2-7.87C775.95,94.6,772.91,92.03,768.55,92.03z M801.83,111.75l-11.59-16.59v16.17h-3.55V89.64h3.89
							l11.03,16.08V89.64h3.51v21.43L801.83,111.75z M825.35,105.38h-8.51l-2.1,5.95h-3.85l8.38-21.64l4.02-0.51l8.3,22.11h-4.11
							L825.35,105.38z M821.03,93.27l-3.25,9.24h6.5L821.03,93.27z M837.37,89.59h3.89v18.86l9.45-0.13l-0.38,2.95h-12.96V89.59
							L837.37,89.59z"/>
					</g>
					<g>
						<path class="st39" d="M679.5,122.4c3.55,0,5.82,1.92,5.82,5.39c0,3.85-2.91,6.07-6.76,6.07h-3.04V122.4L679.5,122.4
							L679.5,122.4z M677.58,132.32c0.51,0.04,1.33,0.09,2.01,0.09c1.84,0,3.59-1.07,3.59-4.28c0-3.04-1.97-4.28-4.36-4.28h-1.28
							v8.47H677.58z M689.38,122.4h7.19l-0.17,1.54c-1.63-0.04-3.29-0.04-4.92-0.09v3.42h4.58l-0.21,1.37l-4.36-0.09v3.81l5.43-0.09
							l-0.17,1.58h-7.31V122.4H689.38z"/>
					</g>
					<g>
						<path class="st39" d="M715.26,133.26c-0.86,0.47-2.4,0.81-3.68,0.81c-3.29,0-5.69-1.97-5.69-5.86c0-3.59,2.4-6.07,6.07-6.07
							c1.41,0,2.65,0.21,3.21,0.47l-0.47,1.63c-0.73-0.26-1.92-0.6-3.34-0.6c-1.63,0-3.34,0.98-3.34,4.28
							c0,3.46,2.18,4.58,4.19,4.58c1.07,0,2.14-0.3,2.65-0.6L715.26,133.26z M723.3,134.08c-3.08,0-5.26-2.1-5.26-5.73
							c0-3.89,2.57-6.2,6.2-6.2c3.08,0,5.26,2.1,5.26,5.77C729.5,131.77,726.93,134.08,723.3,134.08z M723.43,123.68
							c-1.8,0-3.25,1.15-3.25,4.15c0,3.42,1.58,4.79,3.89,4.79c1.84,0,3.29-1.11,3.29-4.15
							C727.36,125.01,725.78,123.68,723.43,123.68z M733.65,122.4h2.05v9.97l5-0.09l-0.21,1.58h-6.84V122.4z M748.62,134.08
							c-3.08,0-5.26-2.1-5.26-5.73c0-3.89,2.57-6.2,6.2-6.2c3.08,0,5.26,2.1,5.26,5.77C754.78,131.77,752.21,134.08,748.62,134.08z
							 M748.75,123.68c-1.8,0-3.25,1.15-3.25,4.15c0,3.42,1.58,4.79,3.89,4.79c1.84,0,3.29-1.11,3.29-4.15
							C752.68,125.01,751.06,123.68,748.75,123.68z M760.94,124.97l-0.86,8.85h-1.92l1.41-11.46h2.18l3.55,9.15l3.42-9.15h2.18
							l1.37,11.46h-2.01l-0.9-8.9l-3.21,8.55h-0.09v0.04l-1.8,0.3L760.94,124.97z M776.63,122.4h3.72c2.52,0,3.89,0.98,3.89,2.69
							c0,1.28-0.81,2.14-1.84,2.69c1.28,0.21,2.69,0.94,2.69,2.65c0,2.05-1.88,3.38-5.09,3.38h-3.34V122.4H776.63z M782.24,125.69
							c0-1.2-0.64-1.92-2.61-1.92c-0.21,0-0.6,0-0.94,0.04v3.55c0.43,0,0.86,0.04,1.2,0.04
							C781.68,127.4,782.24,126.72,782.24,125.69z M783.01,130.7c0-1.33-1.07-2.05-2.91-2.05c-0.38,0-0.94,0.04-1.41,0.04v3.72
							c0.64,0.04,1.41,0.04,2.14,0.04C782.02,132.41,783.01,131.98,783.01,130.7z M791.18,133.86h-2.05V122.4h2.05V133.86z
							 M802.38,130.7h-4.49l-1.11,3.12h-2.05l4.41-11.42l2.14-0.3l4.36,11.68h-2.18L802.38,130.7z M800.11,124.32l-1.71,4.88h3.42
							L800.11,124.32z"/>
					</g>
					<g>
						<g>
							<path class="st39" d="M654.1,81.44c0-4.23-2.01-7.83-5.26-9.41l-0.3-0.13l0.13,0.3c0.09,0.21,0.09,0.38,0.09,0.6
								c0,1.03-0.6,2.05-1.28,3.21c-1.03,1.75-2.35,3.89-2.35,7.27c0,4.83,2.82,9.71,6.89,11.76l0.26,0.13l-0.13-0.26
								c-0.21-0.51-0.34-1.15-0.34-1.71c0-1.88,0.51-3.76,1.07-5.73C653.54,85.5,654.1,83.49,654.1,81.44z M648.96,75.58
								c-0.43,1.84-0.9,4.92-0.94,6.5c-0.04,1.54,0.09,3.89,0.34,5.05l0.17,0.86l0.04-0.86c0.13-1.75,0.3-3.51,0.43-5
								c0.3-3.08,0.6-5.18,0.98-6.76c0.34,1.54,0.43,3.72,0.43,4.7c0,2.48-0.09,5.47-0.64,9.71l0,0c1.07-3.64,1.75-7.36,1.75-9.71
								c0-1.58-0.17-3.72-0.43-5c1.2,1.67,1.84,3.89,1.84,6.42c0,1.92-0.56,3.85-1.11,5.73s-1.11,3.85-1.11,5.86
								c-2.99-2.65-4.49-5.95-4.49-9.79C646.27,80.71,647.21,78.53,648.96,75.58z"/>
							<path class="st39" d="M630.91,65.4c0,1.41,0.81,2.74,1.58,3.38l0.17,0.13l0.04-0.21c0.21-1.37,2.44-3.21,5.3-3.64h0.04h0.04
								c2.14-1.67,3.08-4.66,3.08-6.93c0-3.08-1.5-5.18-2.95-7.19c-0.73-1.03-1.45-2.05-2.01-3.21c0.43,0.17,0.94,0.26,1.58,0.26
								c1.88,0,3.29-1.41,3.29-3.25c0-2.44-2.01-4.23-4.75-4.23c-3.46,0-6.93,2.99-6.93,9.71c0,1.67,0.3,7.4,4.11,11.85
								C631.9,62.49,630.91,63.82,630.91,65.4z M637.2,46.41c0.3-0.26,0.43-0.64,0.43-1.03c0-0.73-0.51-1.45-1.45-1.45
								c-0.9,0-1.54,0.73-1.54,1.75c0,1.88,1.2,3.59,2.44,5.43c1.45,2.1,2.95,4.28,2.95,7.01c0,1.33-0.38,3.17-1.24,4.41
								c0.21-4.79-1.2-7.14-2.57-9.41c-0.77-1.28-1.75-2.52-2.27-4.23l0,0c0.34,2.05,1.03,3.51,1.71,4.96
								c1.03,2.18,2.1,4.41,1.88,8.64c-5.35-9.07-5.43-13.9-4.88-17.11l0.13-0.86l-0.34,0.81c-1.71,3.81-0.3,9.84,4.15,18.01
								c-1.71-0.26-3.08,0.34-3.68,1.63l-0.17,0.43l0.34-0.3c0.9-0.68,2.1-0.9,3.12-0.56c-2.1,0.51-3.08,1.41-3.89,2.61
								c-0.3-0.43-0.47-1.07-0.47-1.75c0-1.45,1.03-2.44,2.87-2.87l0.17-0.04l-0.13-0.13c-3.72-4.45-4.49-9.07-4.49-12.15
								c0-5.99,3.08-8.68,5.95-8.68c2.22,0,3.64,1.28,3.64,3.25c0,1.33-0.98,2.35-2.18,2.35c-0.73,0-1.28-0.09-1.63-0.3
								C636.65,46.75,636.99,46.58,637.2,46.41z"/>
							<path class="st39" d="M644.82,69.17h0.04c1.63,0,3.21,1.11,4.83,2.27c1.84,1.33,3.76,2.69,6.07,2.69
								c2.4,0,4.19-1.63,4.19-3.76c0-2.27-1.75-3.64-3.42-3.64c-1.11,0-1.88,0.56-2.05,1.45c-0.47-0.47-0.98-0.94-1.75-1.28
								c2.44-1.41,3.81-4.23,3.38-6.89v-0.04l-0.04-0.04c-0.26-0.13-1.03-0.34-2.35-0.34c-1.37,0-2.91,0.51-3.98,1.28
								c-0.04-1.71-0.47-2.82-0.9-3.76c-0.34-0.86-0.68-1.67-0.68-2.82c0-0.56,0.09-1.2,0.26-1.84l0.04-0.13h-0.13
								c-3.12,0.04-6.37,3.38-6.37,8.81C641.86,63.95,643.06,67.16,644.82,69.17L644.82,69.17z M646.83,53.55
								c0.04,0,0.09-0.04,0.09-0.04c0.09-0.04,0.21-0.09,0.3-0.09c-0.09,0.3-0.13,0.73-0.13,1.11c0,0.94,0.3,1.75,0.64,2.61
								c0.43,1.03,0.9,2.22,0.9,3.93c0,1.03-0.09,1.71-0.26,2.27l-0.21,0.68l0.43-0.6c1.41-1.92,3.17-2.91,5.18-2.91
								c0.51,0,0.9,0.04,1.33,0.13c0.09,2.1-1.07,4.79-4.58,6.24l-0.38,0.17l0.38,0.04c1.97,0.3,2.82,1.15,3.51,1.8
								c0.51,0.51,0.94,0.94,1.71,0.94s1.33-0.56,1.33-1.33c0-0.34-0.13-0.6-0.38-0.81c-0.04-0.04-0.13-0.09-0.17-0.13
								c1.45,0,2.31,1.37,2.31,2.69c0,1.58-1.28,2.74-3.08,2.74c-1.88,0-3.72-1.24-5.47-2.48c-0.86-0.6-1.8-1.2-2.69-1.67
								c0.86,0,2.31,0.09,3.59,0.9l0.26,0.17c2.35,1.5,4.41,2.82,5.9,0.98l0.6-0.73l-0.77,0.56c-1.28,0.98-2.52,0.13-4.45-1.11
								c-0.38-0.26-0.73-0.47-1.15-0.73c-1.2-0.77-2.95-0.86-3.89-0.9c1.84-1.03,3.76-2.48,4.7-3.64l0.43-0.51l-0.6,0.34
								c-0.43,0.26-0.86,0.51-1.28,0.81c-1.2,0.77-2.44,1.54-3.76,2.22c1.33-1.84,3.68-3.85,6.2-5.43l0.68-0.43l-0.77,0.21
								c-2.4,0.68-5.09,2.99-6.89,5.09c0.38-1.54,0.98-4.62,0.73-7.36L647,58.39l-0.13,0.94c-0.34,2.4-0.9,4.92-1.5,7.06
								c-0.6-3.68-0.38-7.23,0.56-10.82l0.17-0.68l-0.38,0.6c-1.54,2.35-1.97,5.9-1.41,11.08c-0.73-1.28-1.41-3.59-1.41-5.52
								C642.93,57.32,644.34,54.58,646.83,53.55z"/>
							<path class="st39" d="M610.56,69.47c0.43,0,0.81-0.38,1.15-1.15l0.17-0.34l-0.34,0.21c-0.09,0.04-0.17,0.09-0.21,0.13
								c0.09-0.13,0.17-0.26,0.26-0.43l0.17-0.3l-0.3,0.17c-0.94,0.47-1.33,0.86-1.33,1.37C610.09,69.29,610.21,69.47,610.56,69.47z
								"/>
							<path class="st39" d="M658.63,93.76c-0.77-0.73-1.67-1.07-2.65-1.03c-1.37,0.04-2.27,0.86-2.27,2.05
								c0,0.94,0.68,1.67,1.54,1.67c0.17,0,0.3,0,0.43-0.04c-0.51,0.6-1.5,0.64-1.92,0.64c-2.74,0-5.39-1.88-6.71-4.79l-0.13-0.3
								l-0.09,0.34c-0.21,1.03-0.34,2.14-0.34,3.42c0,2.69,0.77,4.96,2.27,6.5c1.33,1.41,3.17,2.18,5.13,2.18
								c3.72,0,6.37-2.69,6.37-6.37C660.3,96.33,659.7,94.74,658.63,93.76z M653.84,101.33c1.88,0,3.42-1.2,4.02-3.17l0.3-0.98
								l-0.51,0.9c-0.86,1.5-2.01,2.14-3.81,2.14c-2.27,0-4.58-1.84-5.52-4.36c1.37,1.2,2.99,2.27,5.47,2.27
								c2.01,0,3.42-1.15,3.42-2.82c0-0.9-0.56-1.58-1.33-1.63c0.04,0,0.09,0,0.13,0c1.8,0,3.21,1.92,3.21,4.36
								c0,2.99-2.27,5.3-5.3,5.3c-3.34,0-5.65-2.27-6.29-6.16C649.01,99.79,651.27,101.33,653.84,101.33z"/>
							<path class="st39" d="M608.59,103.64c1.11-0.81,0.86-1.63,0.47-2.35l-1.5-3.25h-0.43l1.15,3.29
								c-0.04,0.13-0.09,0.26-0.13,0.43c-0.13,0.3-0.26,0.68-0.17,1.03c-0.43-0.13-0.86,0-1.24,0.13c-0.26,0.09-0.51,0.17-0.77,0.17
								h-0.26l0.17,0.17c0.51,0.56,0.94,0.86,1.45,0.86C607.73,104.15,608.12,103.98,608.59,103.64z"/>
							<path class="st39" d="M606.28,102.36c0.17,0.13,0.38,0.17,0.6,0.17c0.13,0,0.26-0.04,0.38-0.09l0,0
								c0.3-0.13,0.6-0.34,0.6-0.77c0-0.86-0.81-1.5-1.54-1.84v-3.76h-0.38v0.09c-0.13,1.97-0.17,3.08-0.21,3.76
								c-0.04,0.64-0.04,0.9-0.04,1.11C605.64,101.59,605.89,102.1,606.28,102.36z"/>
							<path class="st39" d="M612.95,100.26c1.2,0,2.31-0.77,2.57-1.71l2.1-3.12h-0.47l-2.22,2.87c-0.13,0.04-0.26,0.09-0.38,0.17
								c-0.64,0.26-1.28,0.51-1.58,0.9c-0.26-0.38-0.94-0.64-1.54-0.9c-0.13-0.04-0.3-0.13-0.43-0.17l-2.22-2.87h-0.47l2.1,3.04
								C610.64,99.53,611.71,100.26,612.95,100.26z"/>
							<path class="st39" d="M610.13,104.75L610.13,104.75c0.47-0.56,0.73-1.07,0.68-1.58c-0.04-0.43-0.26-0.86-0.68-1.24
								l-0.17-0.17v0.26c0,0.21-0.17,0.51-0.3,0.81c-0.21,0.38-0.43,0.81-0.34,1.15c-0.38-0.04-0.77,0.17-1.11,0.38
								c-0.3,0.17-0.56,0.34-0.77,0.34h-0.21l0.13,0.17c0.38,0.51,0.77,0.77,1.24,0.77h0.04
								C609.1,105.61,609.61,105.31,610.13,104.75z M609.61,104.24L609.61,104.24L609.61,104.24L609.61,104.24z"/>
							<path class="st39" d="M612.95,98.51c1.07,0,2.1-0.68,2.48-1.63l1.5-2.82h-0.47L615,96.41c-0.13,0.04-0.26,0.13-0.43,0.17
								c-0.64,0.26-1.33,0.51-1.67,0.98c-0.3-0.47-0.98-0.73-1.63-0.98c-0.17-0.04-0.3-0.13-0.43-0.17l-1.54-2.35h-0.47l1.63,2.78
								C610.73,97.82,611.75,98.51,612.95,98.51z"/>
							<path class="st39" d="M635.06,106.5c-0.47,0-0.94,0.13-1.45,0.26c-0.56,0.13-1.11,0.3-1.71,0.3c-2.44,0-4.06-0.98-5.3-3.12
								l-0.04-0.04h-1.33l-0.94,1.33l0.04,0.04c0.34,0.6,0.43,1.11,0.43,1.5c0,0.56-0.21,1.07-0.47,1.71
								c-0.43,1.07-0.94,2.4-0.94,4.58c0,2.35,0.81,3.93,1.45,5.18c0.47,0.9,0.86,1.63,0.86,2.44c0,0.3-0.17,0.6-0.51,0.77
								l-0.09,0.04l0.51,1.24h2.22l8.64-13.52c0.13-0.21,0.34-0.68,0.34-1.15C636.69,107.19,635.96,106.5,635.06,106.5z
								 M632.84,108.39v3.21l-0.73,1.03v-4.15C632.37,108.47,632.63,108.43,632.84,108.39z M633.61,108.22
								c0.17-0.04,0.34-0.13,0.47-0.17c0.17-0.09,0.3-0.13,0.38-0.13c0.13,0,0.26,0.09,0.34,0.21c0.09,0.17,0.09,0.34,0,0.47
								l-1.24,1.8v-2.18H633.61z M631.34,108.51v5.3l-0.73,1.03v-6.37C630.91,108.51,631.13,108.51,631.34,108.51z M629.89,108.34
								V116l-0.77,1.15v-9.07c0.04,0,0.09,0.04,0.17,0.04C629.42,108.22,629.63,108.26,629.89,108.34z M624.93,112.75
								c0-1.88,0.38-2.99,0.73-4.06c0.3-0.81,0.56-1.58,0.6-2.61l0.56,0.56v12.28c-0.17-0.43-0.34-0.81-0.56-1.24
								C625.61,116.43,624.93,115.06,624.93,112.75z M628.35,107.7v10.56l-0.77,1.15v-12.19
								C627.84,107.45,628.13,107.62,628.35,107.7z"/>
							<path class="st39" d="M612.95,95.26c0.47,0,0.94-0.51,0.94-0.98c0-0.43-0.13-0.73-0.34-1.11c-0.09-0.17-0.17-0.34-0.26-0.56
								l-0.13-2.18h-0.43l-0.13,2.18c-0.09,0.21-0.17,0.38-0.26,0.56c-0.21,0.43-0.34,0.68-0.34,1.11
								C612.01,94.74,612.48,95.26,612.95,95.26z"/>
							<path class="st39" d="M612.95,96.75c1.15,0,1.75-0.81,2.14-1.63l0.94-2.69h-0.38l-1.07,2.22c-0.09,0.04-0.21,0.09-0.3,0.13
								c-0.47,0.21-1.07,0.47-1.33,0.94c-0.26-0.47-0.9-0.73-1.5-0.98c-0.09-0.04-0.17-0.09-0.21-0.09l-0.94-2.22h-0.38l0.94,2.69
								C611.03,95.9,611.71,96.75,612.95,96.75z"/>
							<path class="st39" d="M616.07,105.52c-0.34-0.26-0.68-0.56-1.11-0.47c0.13-0.43,0-0.86-0.13-1.24
								c-0.09-0.3-0.21-0.6-0.17-0.9l0.04-0.21l-0.21,0.13c-0.43,0.26-0.77,0.77-0.86,1.33c-0.04,0.43,0.04,0.86,0.3,1.15l-0.6,0.47
								v-3.29c1.11-0.13,2.31-0.9,2.52-2.14l2.44-3.55h-0.47l-2.57,3.21c-0.13,0.04-0.3,0.13-0.47,0.17
								c-0.73,0.26-1.54,0.51-1.8,0.98c-0.3-0.47-1.11-0.73-1.8-0.98c-0.17-0.04-0.34-0.13-0.47-0.17l-2.57-3.21h-0.47l2.44,3.55
								c0.26,1.24,1.41,2.01,2.52,2.14v3.29l-0.6-0.47c0.26-0.3,0.34-0.73,0.3-1.15c-0.09-0.56-0.38-1.07-0.86-1.33l-0.21-0.13
								l0.04,0.21c0.04,0.26-0.04,0.56-0.17,0.9c-0.13,0.38-0.26,0.81-0.13,1.24c-0.43-0.13-0.86,0.21-1.2,0.51
								c-0.21,0.17-0.43,0.34-0.64,0.43l-0.21,0.09l0.17,0.13c0.86,0.64,1.67,0.56,2.48-0.26l0.68,0.51l-2.27,1.71l0.94,0.3
								l1.63-1.24v1.84l0.38,0.17l0.38-0.17v-1.84l1.75,1.24l0.94-0.3l-2.35-1.71l0.68-0.51c0.86,0.81,1.67,0.9,2.48,0.26l0.17-0.13
								l-0.21-0.04C616.54,105.91,616.29,105.73,616.07,105.52z M612.95,101.46L612.95,101.46L612.95,101.46L612.95,101.46z"/>
							<path class="st39" d="M646.35,141.62c-0.73,0-1.45,0.13-2.18,0.43c-1.11-1.24-2.57-1.97-4.06-1.97
								c-1.92,0-3.08,0.98-3.08,2.52c0,0.64,0.21,1.2,0.56,1.63c-0.77-0.34-1.5-0.68-2.27-1.03c-0.6-0.26-1.24-0.56-1.97-0.9
								c-2.91-1.33-12.92-5.56-20.02-5.69c3.64-1.88,7.27-3.12,10.78-4.32c3.34-1.11,6.5-2.18,9.32-3.76c3.76-2.22,6.42-5,8.3-8.81
								c2.27-4.53,3.42-10.56,3.64-18.43v-0.13h-0.13c-2.61,0-3.85-0.86-3.85-2.65c0-1.58,0.64-2.52,3.72-2.52h0.13v-0.13
								c0-2.4-0.38-4.32-0.73-6.2c-0.34-1.84-0.73-3.72-0.73-6.03c0-2.01,0.47-6.07,3.59-10.31l0.04-0.04l-1.28-2.48l-0.09,0.04
								c-1.24,0.43-2.57,0.13-3.46-0.73c-0.77-0.77-1.03-2.01-0.68-3.29l0.04-0.09l-2.57-1.41l-0.04,0.04
								c-4.11,3.89-8.6,5.9-13.04,5.9c-2.22,0-5.65-0.43-9.2-2.4l-0.09-0.04l-4.06,5.56l-4.06-5.56l-0.09,0.04
								c-3.55,2.01-6.97,2.4-9.2,2.4c-4.49,0-8.85-2.01-13.05-5.9l-0.04-0.04l-2.57,1.41l0.04,0.09c0.34,1.28,0.09,2.52-0.68,3.29
								c-0.9,0.9-2.22,1.15-3.46,0.73l-0.09-0.04l-1.28,2.48l0.04,0.04c3.12,4.23,3.59,8.25,3.59,10.31c0,2.31-0.34,4.19-0.73,6.03
								c-0.34,1.88-0.73,3.81-0.73,6.2v0.13h0.13c3.12,0,3.76,0.98,3.76,2.52c0,1.8-1.24,2.65-3.85,2.65h-0.13v0.13
								c0.21,7.87,1.41,13.9,3.64,18.43c1.88,3.81,4.53,6.59,8.3,8.81c2.82,1.54,5.99,2.61,9.32,3.76c3.51,1.2,7.1,2.4,10.78,4.32
								c-7.1,0.13-17.11,4.36-20.02,5.69c-0.73,0.3-1.33,0.6-1.92,0.86c-0.81,0.34-1.5,0.68-2.31,1.03
								c0.34-0.43,0.56-0.98,0.56-1.63c0-1.58-1.2-2.52-3.08-2.52c-1.5,0-2.95,0.73-4.06,1.97c-0.51-0.21-1.28-0.43-2.18-0.43
								c-2.18,0-3.51,1.15-3.51,3.04v5.22c0,2.95,2.18,4.62,5.95,4.62c3.42,0,6.89-1.45,12.32-3.85c6.67-2.95,11.93-5.26,18.61-5.26
								c6.67,0,11.98,2.31,18.61,5.26c5.43,2.4,8.9,3.85,12.32,3.85c3.76,0,5.95-1.67,5.95-4.62v-5.22
								C649.86,142.77,648.54,141.62,646.35,141.62z M582.5,89.91c0.34-2.22,0.73-4.49,0.73-6.37c0-3.25-1.33-7.1-3.51-10.26
								l0.6-1.2c1.37,0.26,2.74-0.17,3.72-1.15c0.86-0.86,1.28-2.18,1.15-3.55l1.24-0.64c4.19,3.81,8.64,5.77,13.22,5.77
								c3.12,0,6.29-0.73,8.98-2.05l3.68,5.18v13.56c-1.45,1.07-3.72,1.71-5.95,1.71c-0.47,0-0.98-0.04-1.41-0.13h-0.04l-1.41,1.71
								l0.04,0.04c0.38,0.94,0.56,1.92,0.56,3.21c0,0.86-0.09,1.58-0.21,2.31h-18.13c-0.17-1.75-1.5-2.82-3.81-3.08
								C581.9,93.63,582.2,91.83,582.5,89.91z M640.75,67.41c-0.13,1.37,0.3,2.69,1.15,3.55c0.98,0.98,2.35,1.41,3.72,1.15l0.6,1.2
								c-2.18,3.17-3.51,7.01-3.51,10.26c0,1.88,0.34,4.15,0.73,6.37c0.3,1.92,0.6,3.76,0.6,5.09c-2.31,0.26-3.64,1.33-3.81,3.08
								H622.1c-0.09-0.73-0.21-1.45-0.21-2.31c0-1.28,0.17-2.27,0.56-3.21l0.04-0.04l-1.41-1.71h-0.04
								c-0.43,0.04-0.9,0.13-1.41,0.13c-2.22,0-4.53-0.64-5.95-1.71V75.71l3.68-5.18c2.69,1.33,5.9,2.05,8.98,2.05
								c4.58,0,9.02-1.92,13.22-5.77L640.75,67.41z M622.57,131.7c-3.04,1.03-6.16,2.05-8.94,3.42v-24.29
								c7.36-2.52,8.77-5.39,8.77-9.88c0-0.56-0.09-1.11-0.13-1.54c0-0.09,0-0.17-0.04-0.21h18.01c0.13,1.28,0.9,2.82,3.89,3.08
								c-0.3,12.96-4.02,21.26-11.38,25.41C629.72,129.34,626.08,130.54,622.57,131.7z M620.56,91.92l0.64,0.77l-0.04,0.17
								c-0.21,0.9-0.38,1.75-0.38,2.87c0,0.81,0.13,1.75,0.21,2.69c0.09,0.86,0.21,1.67,0.21,2.27c0,4.28-1.24,6.71-8.25,9.02
								c-7.01-2.31-8.25-4.75-8.25-9.02c0-0.64,0.09-1.41,0.21-2.27c0.13-0.9,0.21-1.88,0.21-2.69c0-1.11-0.17-1.97-0.38-2.87
								l-0.04-0.17l0.64-0.77h0.04c0.3,0.04,0.51,0.09,0.81,0.09c2.69,0,4.88-0.6,6.71-1.84c1.84,1.24,4.06,1.84,6.71,1.84
								c0.3,0,0.56-0.04,0.86-0.09H620.56z M585.71,99.15h18.01c0,0.09,0,0.17-0.04,0.21c-0.04,0.43-0.13,0.98-0.13,1.54
								c0,4.49,1.41,7.36,8.77,9.88v24.29c-2.74-1.37-5.9-2.4-8.94-3.42c-3.51-1.15-7.14-2.35-10.18-4.06
								c-7.36-4.15-11.08-12.45-11.38-25.41C584.77,101.97,585.58,100.43,585.71,99.15z M581.34,146.02c-1.97,0-3.98-0.77-3.98-2.05
								c0-0.68,0.73-1.37,2.1-1.37c1.03,0,2.14,0.51,3.46,1.24c1.03,0.56,2.27,1.15,3.51,1.15
								C584.77,145.64,582.8,146.02,581.34,146.02z M582.71,142.52c0.68-0.86,1.97-1.45,3.08-1.45c1.15,0,1.97,0.64,1.97,1.54
								c0,0.86-0.47,1.37-1.28,1.37C585.32,143.97,583.87,143.16,582.71,142.52z M612.95,137.77c5.56,0,14.2,3.04,19.93,5.6
								c4.7,2.14,8.3,3.64,11.68,3.64c2.4,0,3.46-0.6,4.19-1.24v4.11c0,2.22-1.75,3.51-4.83,3.51c-3.12,0-6.71-1.5-11.89-3.81
								c-7.27-3.25-12.49-5.35-19.03-5.35c-6.54,0-11.8,2.14-19.03,5.35c-5.35,2.35-8.81,3.81-11.89,3.81s-4.83-1.28-4.83-3.51
								v-4.11c0.68,0.64,1.8,1.24,4.19,1.24c3.34,0,6.93-1.5,11.68-3.64C598.75,140.81,607.43,137.77,612.95,137.77z M639.47,145.04
								c1.24,0,2.52-0.6,3.51-1.15c1.33-0.77,2.44-1.24,3.46-1.24c1.37,0,2.1,0.73,2.1,1.37c0,1.28-2.01,2.05-3.98,2.05
								C643.1,146.02,641.14,145.64,639.47,145.04z M638.14,142.6c0-0.9,0.81-1.54,1.97-1.54c1.11,0,2.4,0.6,3.08,1.45
								c-1.11,0.64-2.61,1.45-3.81,1.45C638.61,143.97,638.14,143.46,638.14,142.6z"/>
							<path class="st39" d="M641.05,136.87c0,0.86,0.68,1.45,1.71,1.45c1.11,0,2.22-0.81,2.22-2.35c0-3.25-3.59-5.99-7.83-5.99
								c-2.78,0-5.39,1.03-8.68,2.35c-2.05,0.81-4.36,1.75-7.14,2.61l-0.21,0.04l0.17,0.13c3.21,2.65,6.5,3.98,9.75,3.98
								c3.12,0,5.6-1.24,7.57-2.27c1.24-0.64,2.31-1.15,3.12-1.15C641.31,135.89,641.05,136.36,641.05,136.87z M637.42,134.52
								L637.42,134.52c-2.14,0.9-5.47,1.33-7.66,1.33c-0.51,0-2.01-0.04-3.17-0.09c2.44-0.3,4.53-0.86,6.37-1.41
								c2.74-0.77,5.13-1.41,7.78-1.03l0.9,0.13l-0.81-0.34c-0.77-0.34-2.14-0.56-3.34-0.56c-1.8,0-3.85,0.51-6.03,1.03
								c-2.05,0.51-4.19,1.03-6.24,1.15c1.07-0.38,2.22-0.86,3.42-1.33c2.99-1.24,6.07-2.48,8.55-2.48c2.69,0,6.71,1.63,6.71,5.05
								v0.04c-0.3-0.9-1.11-1.37-2.44-1.37c-1.03,0-2.27,0.6-3.64,1.28c-1.92,0.98-4.15,2.05-6.76,2.05c-1.71,0-3.46-0.38-5.3-1.2
								C629.29,136.96,633.22,136.83,637.42,134.52z"/>
							<path class="st39" d="M617.74,104.45c-0.34-0.21-0.77-0.47-1.11-0.38c0.09-0.38-0.13-0.77-0.3-1.15
								c-0.17-0.3-0.3-0.6-0.3-0.86v-0.26l-0.17,0.17c-0.94,0.94-0.94,1.88,0,2.91l0,0c0.51,0.56,1.03,0.86,1.5,0.86l0,0
								c0.47,0,0.9-0.26,1.28-0.73l0.17-0.17h-0.26C618.3,104.79,618.04,104.62,617.74,104.45z M616.33,104.32L616.33,104.32
								L616.33,104.32L616.33,104.32z"/>
							<path class="st39" d="M644.82,115.32l-0.13-0.09l-0.04,0.13c-0.34,1.03-0.6,2.14-0.86,3.21c-0.94,3.81-1.84,7.4-5.73,8.43
								l-0.13,0.04l0.04,0.13c0.73,1.71,2.82,2.48,4.45,2.48c1.8,0,3.59-0.9,4.36-2.22c0.17,0.81,0.51,1.63,0.81,2.4
								c0.34,0.86,0.64,1.63,0.64,2.18c0,0.26,0,0.43-0.09,0.6c-0.21-0.47-0.68-0.86-1.45-0.86c-0.77,0-1.67,0.68-1.67,1.67
								c0,1.37,1.11,2.31,2.74,2.31c2.78,0,5.6-2.35,5.6-7.61C653.45,123.4,650.85,119.55,644.82,115.32z M646.83,121.9v0.26
								c0.04,2.4-0.47,4.15-1.54,5.22c-0.73,0.73-1.71,1.11-2.87,1.11c-1.11,0-2.18-0.51-2.69-0.94c2.52-1.07,4.15-3.72,5.13-8.64
								c0.56,3.04-0.77,6.89-2.4,8.3l-0.43,0.38l0.51-0.17c2.44-0.81,3.72-5,3.55-8.6c2.4,3.42,3.81,8.13,4.32,11.42l0.13,0.94
								l0.09-0.94c0.3-3.68-0.86-7.66-3.34-11.59c3.08,2.44,4.96,5.99,4.96,9.45c0,2.91-1.07,5.22-2.87,6.16
								c-0.73,0.38-1.54,0.51-2.22,0.3c0.43,0,0.81-0.13,1.11-0.38c0.6-0.43,0.94-1.24,0.94-2.14c0-0.86-0.34-1.67-0.73-2.69
								c-0.6-1.54-1.63-3.21-1.71-6.76L646.83,121.9L646.83,121.9z"/>
							<path class="st39" d="M591.78,112.11c0-1.71,0.64-2.4,2.27-2.44c0,0.26,0,0.51,0,0.73c0,1.63,0,3.04-0.21,4.53
								c-0.26,1.75-0.98,2.27-2.05,3.08l-0.17,0.13l1.41,1.54l0.09-0.09c1.58-1.37,2.31-2.61,2.57-4.41
								c0.21-1.63,0.21-3.08,0.21-4.75c0-0.26,0-0.51,0-0.77h3.17c-0.21,3.72-0.21,4.41-0.21,6.37c0,2.18,0.98,3.29,2.87,3.29
								c0.9,0,1.45-0.26,1.75-0.47l0.04-0.04v-1.71l-0.17,0.09c-0.38,0.17-0.64,0.26-1.15,0.26c-0.68,0-1.5-0.21-1.5-1.88
								c0-0.3,0-0.51,0-0.77c0-1.07,0-1.92,0.17-5.18h2.48v-1.75h-9.02c-2.82,0-4.15,1.11-4.45,3.72v0.09l1.92,0.51V112.11z"/>
							<path class="st39" d="M619.07,103.04c-0.38-0.13-0.77-0.3-1.15-0.17c0.13-0.38,0-0.73-0.13-1.11
								c-0.04-0.13-0.09-0.26-0.13-0.38l1.15-3.21h-0.38l-1.5,3.25c-0.56,0.81-0.43,1.63,0.26,2.14l0,0l0.04,0.04
								c0.04,0,0.04,0.04,0.09,0.04l0,0c0.51,0.34,0.98,0.51,1.37,0.51c0.56,0,0.98-0.3,1.41-0.73l0.17-0.17h-0.3
								C619.62,103.25,619.37,103.13,619.07,103.04z"/>
							<path class="st39" d="M619.62,99.88c-0.51,0.3-1.54,1.03-1.54,1.84c0,0.38,0.26,0.77,0.64,0.9c0.09,0.04,0.21,0.04,0.3,0.04
								c0.21,0,0.43-0.09,0.64-0.21c0.38-0.3,0.64-0.81,0.64-1.37c0-0.21,0-0.47-0.04-1.15c-0.04-0.64-0.13-1.71-0.21-3.59v-0.09
								h-0.38v3.64H619.62z"/>
							<path class="st39" d="M653.63,107.49c-0.98-0.94-2.01-1.63-2.91-2.22c-1.33-0.86-2.44-1.63-3.12-2.82l-0.13-0.17l-0.09,0.21
								c-0.68,1.5-1.11,4.28-1.11,6.12c0,4.45,1.8,6.84,3.68,8.9l0.26,0.3c1.33,1.54,2.87,3.29,3.89,6.33l0.04,0.13l0.13-0.04
								c1.92-1.03,3.25-3.98,3.25-7.19C657.52,113.18,656.19,109.93,653.63,107.49z M652.98,117.03c-0.17-0.38-0.38-0.77-0.56-1.11
								c-1.54-3.04-2.99-5.9-3.76-9.37c3.25,3.59,5.3,7.48,6.2,12.75l0,0c-0.13-6.5-2.61-10.39-5.18-13.34
								c4.32,2.52,6.71,6.42,6.71,11.03c0,3.08-1.2,4.88-1.75,5.52c-0.98-2.01-2.4-4.06-3.89-5.69l-0.13-0.17
								c-1.63-2.05-3.16-3.98-3.16-8.04c0-0.56,0-0.9,0.04-1.58c0.94,3.76,2.82,7.36,5.26,10.14l0.56,0.64L652.98,117.03z"/>
							<path class="st39" d="M577.11,102.23c1.5-1.58,2.27-3.81,2.27-6.5c0-1.33-0.13-2.44-0.34-3.42l-0.09-0.34l-0.13,0.3
								c-1.37,2.91-3.98,4.79-6.71,4.79c-0.43,0-1.41-0.09-1.92-0.64c0.13,0.04,0.26,0.04,0.43,0.04c0.86,0,1.54-0.73,1.54-1.67
								c0-1.2-0.9-1.97-2.27-2.05c-0.98-0.04-1.88,0.3-2.65,1.03c-1.03,0.98-1.67,2.57-1.67,4.23c0,3.72,2.69,6.37,6.37,6.37
								C573.94,104.41,575.78,103.64,577.11,102.23z M568.68,95.3c0,1.67,1.41,2.82,3.42,2.82c2.48,0,4.11-1.07,5.47-2.27
								c-0.98,2.52-3.29,4.36-5.52,4.36c-1.8,0-2.95-0.64-3.81-2.14l-0.51-0.9l0.3,0.98c0.6,1.97,2.14,3.17,4.02,3.17
								c2.57,0,4.83-1.5,6.24-4.19c-0.64,3.85-2.99,6.16-6.29,6.16c-2.99,0-5.3-2.27-5.3-5.3c0-2.44,1.41-4.36,3.21-4.36
								c0.04,0,0.09,0,0.13,0C569.24,93.72,568.68,94.4,568.68,95.3z"/>
							<path class="st39" d="M580.79,133.36c0-0.98-0.86-1.67-1.67-1.67c-0.81,0-1.28,0.43-1.45,0.86c-0.09-0.13-0.09-0.3-0.09-0.6
								c0-0.56,0.3-1.33,0.64-2.18c0.3-0.73,0.64-1.54,0.81-2.4c0.77,1.28,2.52,2.22,4.36,2.22c1.63,0,3.72-0.77,4.45-2.48
								l0.04-0.13l-0.13-0.04c-3.89-1.03-4.79-4.62-5.73-8.43c-0.26-1.07-0.51-2.14-0.86-3.21l-0.04-0.13l-0.13,0.09
								c-6.07,4.23-8.64,8.08-8.64,12.75c0,5.26,2.82,7.61,5.6,7.61C579.68,135.67,580.79,134.73,580.79,133.36z M578.48,118.61
								c-2.48,3.93-3.64,7.96-3.34,11.59l0.09,0.94l0.13-0.94c0.51-3.34,1.92-8,4.32-11.42c-0.17,3.59,1.11,7.78,3.55,8.6l0.51,0.17
								l-0.43-0.38c-1.63-1.41-2.95-5.22-2.4-8.3c1.03,4.92,2.61,7.57,5.13,8.64c-0.51,0.43-1.58,0.94-2.69,0.94
								c-1.15,0-2.14-0.38-2.87-1.11c-1.03-1.03-1.54-2.74-1.54-5.05c0-0.13,0-0.3,0-0.43h-0.21c0,0.13,0,0.3,0,0.43
								c-0.09,3.46-0.9,5.52-1.5,7.01c-0.43,0.98-0.73,1.8-0.73,2.69s0.34,1.71,0.94,2.14c0.34,0.26,0.73,0.38,1.11,0.38
								c-0.68,0.21-1.45,0.09-2.22-0.3c-1.8-0.98-2.87-3.29-2.87-6.16C573.52,124.64,575.44,121.05,578.48,118.61z"/>
							<path class="st39" d="M616.54,146.58c-1.28,0-2.35,0.34-3.64,1.07c-1.11-0.68-2.1-1.07-3.51-1.07
								c-2.69,0-4.53,1.28-4.53,3.21c0,1.5,1.28,2.44,2.52,2.44c1.15,0,1.88-0.56,1.88-1.45c0-0.68-0.43-1.11-1.11-1.11
								c-0.34,0-0.68,0.21-0.9,0.51c-0.17,0.3-0.21,0.64-0.04,0.98c-0.73-0.09-1.24-0.68-1.24-1.45c0-1.28,1.24-2.14,3.21-2.14
								c1.24,0,2.35,0.38,2.91,0.77c-0.9,0.94-1.8,2.05-1.8,3.51c0,1.8,1.33,2.87,2.65,2.87c1.28,0,2.65-1.07,2.65-2.87
								c0-1.45-0.9-2.57-1.8-3.51c0.6-0.38,1.8-0.77,3.04-0.77c1.84,0,3.08,0.86,3.08,2.14c0,0.81-0.51,1.37-1.24,1.45
								c0.13-0.34,0.13-0.68-0.04-0.98c-0.17-0.34-0.51-0.51-0.9-0.51c-0.68,0-1.11,0.43-1.11,1.11c0,0.9,0.73,1.45,1.88,1.45
								c1.24,0,2.52-0.9,2.52-2.44C620.95,147.91,619.15,146.58,616.54,146.58z M612.91,149.06c1.03,0.94,1.54,1.84,1.54,2.82
								c0,1.2-0.77,1.75-1.54,1.75s-1.54-0.56-1.54-1.75C611.37,150.9,611.88,149.96,612.91,149.06z"/>
							<path class="st39" d="M594.86,139.1c3.29,0,6.54-1.33,9.75-3.98l0.17-0.13l-0.21-0.04c-2.78-0.81-5.09-1.75-7.14-2.61
								c-3.29-1.33-5.9-2.35-8.68-2.35c-4.23,0-7.83,2.74-7.83,5.99c0,1.54,1.11,2.35,2.22,2.35c1.03,0,1.71-0.6,1.71-1.45
								c0-0.56-0.26-0.98-0.68-1.2c0.81,0,1.88,0.51,3.12,1.15C589.26,137.86,591.74,139.1,594.86,139.1z M594.43,133.62
								c-2.18-0.51-4.23-1.03-6.03-1.03c-1.24,0-2.57,0.21-3.34,0.56l-0.81,0.34l0.9-0.13c2.65-0.43,5,0.26,7.78,1.03
								c1.88,0.51,3.98,1.11,6.37,1.41c-1.15,0.04-2.65,0.09-3.17,0.09c-2.18,0-5.6-0.21-7.78-1.11l0,0
								c4.23,2.31,8.21,2.22,11.76,2.14c-1.84,0.81-3.55,1.2-5.3,1.2c-2.61,0-4.83-1.11-6.76-2.05c-1.41-0.68-2.61-1.28-3.64-1.28
								c-1.33,0-2.14,0.47-2.44,1.37v-0.04c0-3.46,4.02-5.05,6.71-5.05c2.48,0,5.56,1.28,8.55,2.48c1.2,0.51,2.35,0.98,3.42,1.33
								C598.62,134.65,596.53,134.13,594.43,133.62z"/>
							<path class="st39" d="M575.91,117.45c1.84-2.05,3.68-4.45,3.68-8.9c0-1.84-0.43-4.62-1.11-6.12l-0.09-0.21l-0.13,0.17
								c-0.68,1.2-1.84,1.97-3.12,2.82c-0.9,0.6-1.92,1.28-2.91,2.22c-2.52,2.4-3.89,5.69-3.89,9.45c0,3.21,1.33,6.2,3.25,7.19
								l0.13,0.04l0.04-0.13c1.03-3.04,2.52-4.75,3.89-6.29L575.91,117.45z M573.05,117.15c2.44-2.78,4.32-6.37,5.26-10.14
								c0.04,0.73,0.04,1.03,0.04,1.58c0,4.06-1.54,5.99-3.17,8.04l-0.13,0.13c-1.54,1.67-2.95,3.72-3.89,5.73
								c-0.51-0.64-1.75-2.44-1.75-5.52c0-4.62,2.35-8.51,6.72-11.03c-2.57,2.95-5.05,6.84-5.18,13.34l0,0
								c0.9-5.22,2.95-9.15,6.2-12.75c-0.77,3.42-2.22,6.29-3.72,9.32c-0.17,0.38-0.38,0.77-0.56,1.15l-0.38,0.77L573.05,117.15z"/>
							<path class="st39" d="M573.52,95.17l0.26-0.13c4.06-2.1,6.89-6.93,6.89-11.76c0-3.38-1.28-5.52-2.35-7.27
								c-0.68-1.15-1.28-2.18-1.28-3.21c0-0.21,0-0.43,0.09-0.6l0.13-0.3l-0.3,0.13c-3.25,1.58-5.22,5.18-5.22,9.41
								c0,2.05,0.56,4.06,1.11,6.03c0.56,1.97,1.07,3.81,1.07,5.73c0,0.56-0.13,1.2-0.34,1.71L573.52,95.17z M574.29,80.03
								c0,2.35,0.68,6.07,1.75,9.71l0,0c-0.56-4.23-0.64-7.23-0.64-9.71c0-1.03,0.09-3.21,0.43-4.7c0.38,1.58,0.68,3.72,0.98,6.76
								l0,0c0.17,1.5,0.34,3.25,0.43,5l0.04,0.86l0.17-0.81c0.21-1.15,0.38-3.51,0.34-5.05c-0.04-1.58-0.51-4.66-0.94-6.5
								c1.75,2.99,2.69,5.18,2.69,7.66c0,3.85-1.5,7.1-4.49,9.79c0-2.01-0.56-3.98-1.11-5.86c-0.56-1.84-1.11-3.76-1.11-5.73
								c0-2.52,0.64-4.7,1.84-6.42C574.46,76.31,574.29,78.49,574.29,80.03z"/>
							<path class="st39" d="M584.77,58.13c0,2.27,0.94,5.26,3.08,6.93h0.04h0.04c2.87,0.43,5.09,2.27,5.3,3.64l0.04,0.21l0.17-0.13
								c0.77-0.64,1.58-2.01,1.58-3.38c0-1.58-0.98-2.91-2.57-3.38c3.81-4.45,4.11-10.18,4.11-11.85c0-6.71-3.51-9.71-6.93-9.71
								c-2.74,0-4.75,1.8-4.75,4.23c0,1.84,1.41,3.25,3.29,3.25c0.64,0,1.15-0.09,1.58-0.26c-0.56,1.15-1.28,2.18-2.01,3.21
								C586.26,52.96,584.77,55.05,584.77,58.13z M591.1,62.54c1.88,0.43,2.91,1.41,2.91,2.87c0,0.68-0.17,1.33-0.47,1.75
								c-0.77-1.15-1.75-2.05-3.89-2.61c1.07-0.34,2.22-0.13,3.12,0.56l0.34,0.3l-0.17-0.43c-0.6-1.28-1.97-1.88-3.68-1.63
								c4.45-8.17,5.82-14.24,4.15-18.01l-0.34-0.81l0.13,0.86c0.56,3.21,0.47,8.08-4.88,17.11c-0.21-4.23,0.86-6.46,1.88-8.64
								c0.68-1.45,1.41-2.91,1.71-4.96l0,0c-0.51,1.71-1.5,2.95-2.27,4.23c-1.37,2.27-2.78,4.66-2.57,9.41
								c-0.86-1.28-1.24-3.08-1.24-4.41c0-2.74,1.5-4.92,2.95-7.01c1.24-1.84,2.44-3.55,2.44-5.43c0-1.03-0.64-1.75-1.54-1.75
								c-0.94,0-1.45,0.73-1.45,1.45c0,0.43,0.17,0.77,0.43,1.03c0.21,0.17,0.56,0.38,1.07,0.38c-0.38,0.21-0.9,0.3-1.63,0.3
								c-1.24,0-2.18-1.03-2.18-2.35c0-1.97,1.41-3.25,3.64-3.25c2.87,0,5.95,2.74,5.95,8.68c0,3.08-0.77,7.7-4.49,12.15l-0.13,0.13
								L591.1,62.54z"/>
							<path class="st39" d="M570.14,74.08c2.31,0,4.19-1.37,6.07-2.69c1.63-1.15,3.21-2.27,4.83-2.27h0.04l0.04-0.04
								c1.71-1.97,2.91-5.18,2.91-8c0-5.43-3.25-8.77-6.37-8.81h-0.13l0.04,0.13c0.17,0.64,0.26,1.28,0.26,1.84
								c0,1.15-0.34,1.97-0.68,2.82c-0.38,0.98-0.86,2.05-0.9,3.76c-1.07-0.77-2.61-1.28-3.98-1.28c-1.33,0-2.14,0.21-2.35,0.34
								l-0.04,0.04v0.04c-0.43,2.65,0.94,5.47,3.38,6.89c-0.73,0.3-1.28,0.81-1.75,1.28c-0.17-0.9-0.94-1.45-2.05-1.45
								c-1.67,0-3.42,1.37-3.42,3.64C565.95,72.5,567.74,74.08,570.14,74.08z M569.15,67.8c-0.21,0.21-0.38,0.47-0.38,0.81
								c0,0.77,0.56,1.33,1.33,1.33c0.77,0,1.2-0.43,1.71-0.94c0.68-0.68,1.5-1.5,3.51-1.8l0.38-0.04l-0.38-0.17
								c-3.51-1.45-4.66-4.19-4.58-6.24c0.43-0.09,0.81-0.13,1.33-0.13c2.05,0,3.76,0.98,5.18,2.91l0.43,0.6l-0.21-0.68
								c-0.17-0.56-0.26-1.24-0.26-2.27c0-1.75,0.47-2.91,0.9-3.93c0.34-0.86,0.64-1.63,0.64-2.61c0-0.43-0.04-0.81-0.13-1.11
								c0.09,0.04,0.21,0.09,0.3,0.09c0.04,0,0.09,0.04,0.09,0.04c2.48,1.03,3.89,3.76,3.89,7.57c0,1.97-0.68,4.23-1.41,5.52
								c0.6-5.18,0.13-8.73-1.41-11.08l-0.38-0.6l0.17,0.68c0.98,3.59,1.15,7.14,0.56,10.82c-0.6-2.14-1.15-4.66-1.5-7.06
								l-0.13-0.94l-0.09,0.94c-0.26,2.74,0.34,5.77,0.73,7.36c-1.8-2.05-4.49-4.41-6.93-5.09l-0.77-0.21l0.68,0.43
								c2.52,1.58,4.88,3.59,6.2,5.43c-1.28-0.68-2.52-1.45-3.72-2.22c-0.43-0.26-0.9-0.56-1.33-0.81l-0.6-0.34l0.43,0.51
								c0.94,1.15,2.87,2.61,4.7,3.64c-0.94,0-2.69,0.13-3.89,0.9c-0.38,0.26-0.77,0.51-1.15,0.73c-1.92,1.28-3.17,2.1-4.45,1.15
								l-0.77-0.56l0.6,0.73c1.5,1.84,3.55,0.51,5.9-0.98l0.26-0.17c1.28-0.81,2.74-0.9,3.59-0.9c-0.9,0.47-1.8,1.07-2.69,1.67
								c-1.75,1.2-3.59,2.48-5.47,2.48c-1.8,0-3.08-1.15-3.08-2.74c0-1.33,0.86-2.69,2.31-2.69
								C569.28,67.71,569.2,67.71,569.15,67.8z"/>
							<path class="st39" d="M626.64,80.59c0.81,0,1.37-0.3,2.05-0.9c0.86-0.77,1.63-1.2,3.12-1.2c1.88,0,3.72,1.03,3.72,3.29
								c0,2.35-1.58,3.68-5.43,4.53l-1.07,0.26v1.54l1.45-0.26c2.95-0.73,6.93-2.18,6.93-6.16c0-2.91-2.31-4.96-5.6-4.96
								c-3.12,0-6.07,2.27-6.07,3.29C625.74,80.37,626.12,80.59,626.64,80.59z M627.07,79.17c0-0.17,0.13-0.26,0.26-0.26
								c0.17,0,0.26,0.13,0.26,0.26c0,0.17-0.13,0.26-0.26,0.26C627.19,79.43,627.07,79.35,627.07,79.17z"/>
							<path class="st39" d="M628.39,90.29l-1.11-0.21c-1.33-0.26-1.58-0.43-1.58-0.64s0.13-0.38,0.81-0.56h0.09v-1.5l-0.13,0.04
								c-1.75,0.47-2.52,1.11-2.52,2.1c0,0.94,1.03,1.54,3.29,1.92l1.11,0.21c2.91,0.6,3.38,1.54,3.64,2.01
								c0.13,0.21,0.21,0.43,0.47,0.43c0.26,0,0.34-0.51,0.34-0.77c0-0.13-0.04-0.43-0.17-0.68
								C632.37,92.18,631.6,90.94,628.39,90.29z"/>
							<path class="st39" d="M628.52,92.52v-0.43l-1.33-0.26v0.73c-1.5,0.34-2.44,0.64-2.44,1.28v0.13h6.29v-0.13
								C631.04,93.2,630.06,92.86,628.52,92.52z"/>
							<path class="st39" d="M591.61,90.51c3.17,0,4.28-1.2,4.28-2.22v-0.13h-0.81l-2.82-8.73c1.11-0.21,2.1-0.34,2.95-0.34
								c0.17,0.47,0.73,0.94,1.41,0.94s1.24-0.47,1.41-0.94c1.2,0,2.31,0.21,2.95,0.34l-2.82,8.73h-0.81v0.13
								c0,1.03,1.11,2.22,4.28,2.22c2.99,0,4.06-1.15,4.06-2.22v-0.13H605l-2.57-8.3l0.38,0.13l0.47-1.37l-0.13-0.04
								c-1.8-0.56-3.51-0.9-5.3-0.98c-0.21-0.51-0.73-0.9-1.37-0.9c-0.6,0-1.15,0.34-1.41,0.9c-1.8,0.13-3.42,0.43-5.26,0.98
								l-0.13,0.04l0.47,1.37l0.38-0.13l-2.57,8.3h-0.68v0.13C587.5,89.4,588.57,90.51,591.61,90.51z M589.17,88.2l2.01-6.97v6.97
								H589.17z M592.04,88.2v-6.97l2.05,6.97H592.04z M599.22,88.2l2.05-6.97v6.97H599.22z M602.17,88.2v-6.97l2.05,6.97H602.17z"
								/>
							<path class="st39" d="M627.19,89.61l1.33,0.26v-4.32c2.69-0.6,5.3-1.33,5.3-3.51v-0.13h-11.89v0.13
								c0,2.14,2.61,2.91,5.3,3.51v4.06H627.19z"/>
							<path class="st39" d="M630.1,66c-0.98,0.77-1.97,0.98-3.85,0.98c-3.12,0-6.63-1.88-8.17-1.88c-1.33,0-1.88,0.77-2.1,2.65
								c1.67,0,6.5,2.44,9.92,2.44C628.43,70.19,629.89,69.29,630.1,66z M618.38,67.54c-0.51-0.13-0.73-0.51-0.73-0.98
								c0-0.6,0.34-0.94,0.77-0.9c0.6,0.13,0.77,0.6,0.77,1.15C619.2,67.37,618.81,67.67,618.38,67.54z M620.31,68.14l-0.26-0.81
								v0.73l-0.56-0.17V66l0.56,0.17c0.56,0.17,0.77,0.38,0.77,0.73c0,0.21-0.13,0.38-0.34,0.43l0.43,1.03L620.31,68.14z
								 M621.63,68.61l-0.56-0.17v-1.92l0.6,0.21c0.64,0.21,0.9,0.64,0.9,1.2C622.53,68.52,622.06,68.7,621.63,68.61z M623.86,69.17
								l-1.11-0.26v-1.8l1.07,0.26v0.34l-0.51-0.17v0.51l0.43,0.04v0.34l-0.43-0.13v0.43l0.56,0.13V69.17z M625.65,69.42l-0.64-0.04
								l-0.51-1.41l0.04,1.37l-0.34-0.04v-1.8l0.73,0.13l0.43,1.37l-0.04-1.33h0.34V69.42z"/>
							<path class="st39" d="M601.02,68.87c0-0.21-0.13-0.34-0.26-0.34v0.64C600.89,69.21,601.02,69.08,601.02,68.87z"/>
							<path class="st39" d="M621.63,66.98v1.33c0.21,0.04,0.38-0.04,0.38-0.51C622.02,67.2,621.85,67.07,621.63,66.98z"/>
							<polygon class="st39" points="606.24,66.39 606.15,67.37 606.41,67.28 							"/>
							<path class="st39" d="M600.03,70.19c3.42,0,8.25-2.52,9.92-2.52c-0.21-1.88-0.77-2.65-2.1-2.65c-1.58,0-5.05,1.97-8.17,1.97
								c-1.37,0-2.87-0.21-3.85-0.98C596.06,69.29,597.51,70.19,600.03,70.19z M606.62,65.96l0.43,1.71v-1.8l0.56-0.13
								c0.56-0.13,0.9,0.13,0.9,0.64c0,0.6-0.26,0.9-0.9,1.11l-0.56,0.17l-0.56,0.17l-0.04-0.26l-0.38,0.17l-0.04,0.34l-0.43,0.17
								l0.38-2.05L606.62,65.96z M604.44,66.69l1.28-0.38v0.38l-0.34,0.04v1.54l-0.56,0.17V66.9l-0.38,0.17V66.69z M603.11,67.07
								l0.6-0.17c0.43-0.13,0.73,0.17,0.73,0.51c0,0.17-0.13,0.38-0.26,0.43l0.43,0.64l-0.6,0.17l-0.34-0.6v0.73l-0.56,0.17V67.07
								L603.11,67.07z M601.79,67.37l1.03-0.21v0.34l-0.51,0.04v0.43l0.51-0.13v0.34l-0.51,0.04v0.51l0.56-0.13v0.34l-1.11,0.21
								v-1.8H601.79z M600.21,67.58l0.6-0.04c0.43-0.04,0.73,0.04,0.73,0.38c0,0.21-0.17,0.43-0.38,0.43c0.21,0,0.43,0.04,0.43,0.38
								c0,0.34-0.21,0.56-0.64,0.6l-0.73,0.04V67.58z M599.31,67.58h0.56v1.75h-0.56V67.58z M598.11,67.5l0.56,0.04v1.5h0.43v0.34
								c-0.34,0-0.77-0.13-0.98-0.21V67.5z"/>
							<path class="st39" d="M620.01,66.43v0.73c0.17,0.04,0.26-0.04,0.26-0.26C620.31,66.69,620.22,66.51,620.01,66.43z"/>
							<path class="st39" d="M603.88,67.46c0-0.17-0.04-0.34-0.21-0.26v0.64C603.84,67.75,603.88,67.67,603.88,67.46z"/>
							<path class="st39" d="M601.02,68.05c0-0.17-0.13-0.26-0.26-0.26v0.56C600.89,68.31,601.02,68.23,601.02,68.05z"/>
							<path class="st39" d="M618.43,65.92c-0.21-0.04-0.21,0.26-0.21,0.73c0,0.34,0,0.64,0.21,0.73c0.21,0.04,0.21-0.26,0.21-0.64
								S618.64,65.96,618.43,65.92z"/>
							<path class="st39" d="M610.6,65.23c0,0.64,0.34,1.67,0.56,2.31c0.56-0.13,1.33-0.21,1.75-0.21c0.56,0,1.33,0.13,1.88,0.21
								c0.21-0.64,0.56-1.67,0.56-2.31c0-0.9-0.64-1.2-2.44-1.2C611.24,64.03,610.6,64.33,610.6,65.23z M613.34,64.8h0.34
								l-0.43,1.15v0.6h-0.56v-0.6l-0.43-1.15h0.56l0.26,0.81L613.34,64.8z"/>
							<path class="st39" d="M607.95,66.51c0-0.56-0.13-0.56-0.34-0.56v1.28C607.86,67.11,607.95,66.98,607.95,66.51z"/>
							<path class="st39" d="M599.18,145.08c0,0.34-0.38,0.43-0.81,0.34l0.13,0.6c0.64,0.21,1.41-0.21,1.41-0.98
								c0-0.98-1.03-1.15-1.03-1.71c0-0.43,0.38-0.51,0.81-0.38l-0.13-0.6c-0.77-0.13-1.37,0.34-1.37,0.98
								C598.2,144.31,599.18,144.44,599.18,145.08z"/>
							<path class="st39" d="M603.5,143.76l0.6-0.17l0.13,0.64l0.56-0.17l-0.56-3.38l-0.94,0.26l-0.6,3.68l0.73-0.21L603.5,143.76z
								 M603.67,142.13l0.04-0.73l0.13-0.04l0.04,0.73l0.13,0.98l-0.43,0.13L603.67,142.13z"/>
							<path class="st39" d="M601.23,143.84c0.26,0,0.43-0.17,0.43-0.43s-0.17-0.43-0.43-0.43c-0.26,0-0.43,0.17-0.43,0.43
								S600.98,143.84,601.23,143.84z"/>
							<path class="st39" d="M585.36,150.86c-0.21,0.13-0.6,0.21-0.77,0.26v-1.15l0.64-0.13v-0.56l-0.64,0.21v-0.98l0.77-0.13v-0.56
								c-0.43,0.13-0.9,0.21-1.41,0.34v3.51c0.38-0.04,1.03-0.21,1.41-0.34V150.86z"/>
							<path class="st39" d="M596.78,146.2l0.73-0.26l0.13,0.64l0.56-0.21l-0.77-3.29l-0.9,0.34l-0.43,3.85l0.64-0.26L596.78,146.2z
								 M596.95,144.61v-0.81l0.13-0.04l0.13,0.81l0.21,0.81l-0.56,0.21L596.95,144.61z"/>
							<polygon class="st39" points="581.13,149.49 581.34,150.82 581.26,150.82 581.04,149.83 580.57,148.51 580.02,148.46 
								580.02,151.67 580.57,151.76 580.57,150.73 580.36,149.4 580.49,149.4 580.7,150.39 581.13,151.88 581.69,151.93 
								581.69,148.51 581.13,148.51 							"/>
							<path class="st39" d="M586.26,149.7l0.21-0.04l0.13,0.43l0.51,0.77l0.64-0.21l-0.94-1.2c0.34-0.21,0.56-0.6,0.56-1.03
								c0-0.56-0.43-0.94-1.2-0.73l-0.43,0.13v3.51l0.56-0.17v-1.45H586.26z M586.26,148.12c0.34-0.13,0.56,0.13,0.56,0.43
								c0,0.21-0.13,0.56-0.56,0.64V148.12z"/>
							<path class="st39" d="M606.62,143.67v-0.51c-0.56,0.21-1.03-0.13-1.03-1.11c0-0.9,0.26-1.33,0.94-1.33v-0.56
								c-0.9-0.13-1.54,0.64-1.54,1.88C605,143.72,605.85,144.01,606.62,143.67z"/>
							<path class="st39" d="M588.7,149.02c0.26,0,0.43-0.17,0.43-0.43s-0.17-0.43-0.43-0.43c-0.26,0-0.43,0.17-0.43,0.43
								C588.23,148.85,588.4,149.02,588.7,149.02z"/>
							<polygon class="st39" points="595.84,146.75 595.2,147.09 595.2,143.93 594.65,144.14 594.65,147.86 595.84,147.35 							
								"/>
							<path class="st39" d="M592.85,148.63c0.56,0,1.2-0.56,1.2-1.67v-2.61l-0.64,0.26v2.65c0,0.43-0.21,0.64-0.43,0.64
								c-0.13,0-0.21-0.13-0.21-0.34V145l-0.56,0.21v2.65C592.21,148.29,592.42,148.63,592.85,148.63z"/>
							<path class="st39" d="M590.67,148.72l0.64-0.26l0.13,0.77l0.56-0.21l-0.56-3.42l-0.98,0.43l-0.56,3.81l0.64-0.26
								L590.67,148.72z M590.88,146.37l0.13-0.04l0.13,0.81l0.13,0.77l-0.56,0.21L590.88,146.37z"/>
							<path class="st39" d="M582.46,151.93l0.64-0.04v-2.91c0.13,0,0.6-0.04,0.6-0.04v-0.6c-0.51,0.13-1.41,0.21-1.84,0.21v0.56
								l0.56-0.04v2.87H582.46z"/>
							<path class="st39" d="M635.32,148.08c0.26,0,0.43-0.17,0.43-0.43s-0.17-0.43-0.43-0.43c-0.26,0-0.43,0.17-0.43,0.43
								C634.89,147.91,635.06,148.08,635.32,148.08z"/>
							<polygon class="st39" points="634.08,148.42 633.18,148.12 633.18,147.01 633.95,147.31 633.95,146.75 633.18,146.45 
								633.18,145.55 634.08,145.94 634.08,145.38 632.63,144.7 632.63,148.46 634.08,149.02 							"/>
							<polygon class="st39" points="637.93,150.6 638.48,147.27 637.93,147.01 637.59,149.02 637.54,149.96 637.37,149.87 
								637.37,148.93 637.07,146.71 636.47,146.41 636.95,150.22 							"/>
							<path class="st39" d="M631.09,146.41h0.21l0.04,0.34l0.43,1.33l0.77,0.34l-0.81-2.14c0.34-0.17,0.43-0.64,0.43-0.9
								c0-0.56-0.21-0.98-1.11-1.33l-0.56-0.21v3.76l0.56,0.21v-1.41H631.09z M631.09,144.66c0.34,0.13,0.56,0.26,0.56,0.73
								c0,0.43-0.34,0.6-0.56,0.51V144.66z"/>
							<polygon class="st39" points="640.11,150.73 639.25,150.47 639.25,149.45 639.9,149.66 639.9,149.1 639.25,148.93 
								639.25,148.03 640.11,148.33 640.11,147.78 638.7,147.31 638.7,150.82 640.11,151.33 							"/>
							<path class="st39" d="M643.45,152.1c0.56,0,0.94-0.43,0.94-1.2v-2.35h-0.6v2.48c0,0.34-0.21,0.43-0.34,0.43
								c-0.21,0-0.34-0.17-0.34-0.56v-2.44l-0.64-0.13v2.52C642.42,151.76,642.89,152.1,643.45,152.1z"/>
							<polygon class="st39" points="645.37,150.64 645.2,149.32 645.29,149.32 645.76,151.2 646.18,151.11 646.57,149.1 
								646.7,149.06 646.53,150.34 646.53,151.41 647.08,151.16 647.08,148.16 646.4,148.29 646.06,149.7 646.01,150.47 
								645.88,150.47 645.84,149.79 645.41,148.46 644.82,148.51 644.82,151.88 645.37,151.8 							"/>
							<path class="st39" d="M627.79,146.41l0.21-0.77l0.64,0.26v0.81l1.54,0.64v-0.64l-0.9-0.34v-0.98l0.64,0.26v-0.56l-0.64-0.26
								v-0.9l0.9,0.38v-0.6l-1.92-0.77l-0.98,3.25L627.79,146.41z M628.39,144.27l0.17-0.73l0.13,0.04v1.75l-0.51-0.21
								L628.39,144.27z"/>
							<path class="st39" d="M641.01,150.39h0.21l0.04,0.26l0.38,1.03l0.64,0.17l-0.64-1.67c0.21-0.13,0.43-0.51,0.43-0.9
								c0-0.64-0.34-1.15-0.98-1.33l-0.64-0.17v3.59l0.56,0.13V150.39z M641.01,148.63c0.34,0,0.56,0.26,0.56,0.6
								c0,0.43-0.21,0.64-0.56,0.64V148.63z"/>
							<path class="st39" d="M578.95,151.2c0.17,0.13,0.34,0.17,0.64,0.26v-3.12l-0.64-0.17V151.2z"/>
							<polygon class="st39" points="612.91,142.35 612.14,142.39 612.14,141.28 612.82,141.28 612.82,140.76 612.14,140.81 
								612.14,139.87 612.91,139.82 612.91,139.27 611.58,139.31 611.58,142.95 612.91,142.9 							"/>
							<polygon class="st39" points="614.02,141.75 613.89,140.21 614.02,140.21 614.23,141.28 614.45,142.18 614.92,142.18 
								615.13,141.28 615.35,140.29 615.43,140.29 615.35,141.83 615.35,142.99 615.9,143.07 615.9,139.48 615.22,139.44 
								614.79,140.76 614.66,141.62 614.62,141.62 614.58,140.76 614.11,139.31 613.46,139.27 613.46,142.9 614.02,142.9 							"/>
							<path class="st39" d="M607.56,142.69l0.6-0.17l0.13,0.77l0.64-0.13l-0.64-3.42l-0.98,0.21l-0.43,3.64l0.6-0.17L607.56,142.69
								z M607.73,140.29h0.13l0.21,1.67l-0.43,0.13L607.73,140.29z"/>
							<path class="st39" d="M611.15,141.19c0-1.33-0.6-1.75-1.5-1.67l-0.38,0.04v3.51l0.43-0.04
								C610.47,142.95,611.15,142.52,611.15,141.19z M609.83,140.08c0.43-0.13,0.77,0.34,0.77,1.2c0,0.64-0.34,1.2-0.77,1.2V140.08z
								"/>
							<polygon class="st39" points="616.89,139.65 616.33,139.52 616.33,143.12 616.89,143.16 							"/>
							<path class="st39" d="M626.34,145.94c0.51,0.17,0.98-0.21,0.98-0.77v-2.61l-0.56-0.17v2.65c0,0.21-0.13,0.38-0.34,0.34
								c-0.26-0.04-0.43-0.34-0.43-0.77v-2.48l-0.56-0.21v2.61C625.48,145.38,625.78,145.77,626.34,145.94z"/>
							<path class="st39" d="M624.03,145.04h0.13l0.98,0.34v-0.64l-0.43-0.13l-0.34,0.13c0.43-0.21,0.56-0.64,0.56-1.33
								c0-1.33-0.34-2.1-1.11-2.1c-0.64,0-0.98,0.77-0.98,1.75C622.83,144.27,623.17,145.04,624.03,145.04z M623.86,141.92
								c0.38,0,0.51,0.6,0.51,1.28c0,0.77-0.13,1.33-0.43,1.33c-0.43,0-0.56-0.64-0.56-1.33
								C623.39,142.39,623.47,141.92,623.86,141.92z"/>
							<path class="st39" d="M621.29,142.82c0.26,0,0.43-0.17,0.43-0.43s-0.17-0.43-0.43-0.43c-0.26,0-0.43,0.17-0.43,0.43
								C620.86,142.69,620.99,142.82,621.29,142.82z"/>
							<path class="st39" d="M617.91,142.6l0.6,0.13v0.73l1.41,0.34v-0.56l-0.9-0.17V142l0.77,0.17v-0.56l-0.77-0.13v-0.9l0.9,0.21
								v-0.51c-0.43-0.13-1.33-0.34-1.75-0.38l-1.11,3.29l0.6,0.13L617.91,142.6z M618.38,141.15l0.17-0.64h0.04l-0.04,0.64v1.03
								l-0.51-0.04L618.38,141.15z"/>
						</g>
						<path class="st39" d="M598.79,60.14c0,0.98-0.77,1.75-1.97,1.75c-0.98,0-1.67-0.64-1.75-1.75c0.56,0.43,1.75,0.13,1.97,0.98
							c0.13-0.9,1.2-0.9,1.67-1.54C598.79,59.84,598.79,59.93,598.79,60.14z"/>
						<path class="st39" d="M599.48,61.94c0,1.2-1.11,1.88-2.52,1.88c-1.11,0-1.75-0.43-1.88-1.75c0.64,0.64,2.22,0.21,2.44,1.2
							c0-1.11,1.54-1.2,1.88-1.88C599.48,61.47,599.48,61.68,599.48,61.94z"/>
						<path class="st39" d="M596.83,60.06c-0.9,0-1.54-0.64-1.54-1.33c0-0.21,0-0.34,0.13-0.56c0.43,0.56,1.41,0.34,1.54,1.41
							c-0.13-1.11,1.2-1.33,1.41-1.54C598.41,59.16,597.81,60.06,596.83,60.06z"/>
						<path class="st39" d="M600.46,63.69c0,1.41-1.54,2.31-2.87,2.31c-0.98,0-1.67-0.56-1.88-1.54c0.17,0.17,0.56,0.13,1.67,0.13
							c0.43,0,0.98,0,1.2,0.56v-0.43c0-1.11,1.54-1.41,1.67-2.1C600.33,63.01,600.46,63.35,600.46,63.69z"/>
						<path class="st39" d="M596.83,58.3c-0.34-0.13-0.77-0.56-0.77-1.2c0-0.64,0.43-1.41,0.98-1.97c0,0.9,0.43,1.41,0.43,2.1
							C597.47,57.75,597.04,58.17,596.83,58.3z"/>
						<path class="st39" d="M621.16,36.92c2.74,0,6.16,2.65,6.63,9.92c-0.98,0-1.33-0.77-1.41-1.97c-0.64-4.62-3.08-6.84-4.83-6.84
							c-3.42,0-0.64,5.39-4.19,6.16c0,0.9-0.21,1.97-0.64,1.97c-0.56,0-0.77-0.98-0.98-1.75c0,1.2-0.34,2.22-0.77,2.22
							c-0.34,0-0.64-0.98-0.9-1.88c0,1.11-0.56,2.22-1.11,2.22c-0.43,0-0.98-1.11-0.98-2.22c-0.21,0.9-0.56,1.88-0.9,1.88
							c-0.43,0-0.77-0.98-0.77-2.22c-0.21,0.77-0.43,1.75-0.98,1.75c-0.43,0-0.64-1.11-0.64-1.97c-3.51-0.77-0.77-6.16-4.19-6.16
							c-1.75,0-4.19,2.22-4.83,6.84c-0.13,1.2-0.43,1.97-1.41,1.97c0.43-7.27,3.85-9.92,6.63-9.92c4.06,0,1.97,5.05,3.85,5.05
							c0.77,0,1.41-0.9,2.1-1.97c-0.13,0.21-0.13,0.43-0.13,0.64c0,0.9,0.9,1.41,2.31,1.41c1.54,0,2.44-0.56,2.44-1.41
							c0-0.21,0-0.43-0.13-0.64c0.64,1.11,1.2,1.97,2.1,1.97C619.07,41.96,617.1,36.92,621.16,36.92z"/>
						<path class="st39" d="M599.14,57.4c0.56-0.21,0.98-0.77,0.98-2.31c0.64,2.99,1.33,4.96,2.1,6.84
							c0.56,1.41,1.11,2.31,1.11,2.74c0,0.34-0.13,0.43-0.34,0.56C601.36,63.22,600.03,60.27,599.14,57.4z"/>
						<path class="st39" d="M602,44.62c-0.17,1.33-0.77,1.88-1.67,1.88c0.13-1.97,0.64-3.85,1.2-5.05c0.77-1.67,2.1-2.65,2.74-2.65
							c0.21,0,0.43,0.13,0.43,0.34c0,0.21-0.34,0.34-0.77,0.77C603.11,40.77,602.3,42.43,602,44.62z"/>
						<path class="st39" d="M600.33,47.4c0.56,0,1.11-0.34,1.41-1.67c-0.13,0.9-0.13,1.67-0.13,2.44v2.22
							c0,0.77-0.13,1.75-1.11,1.88C600.33,50.48,600.33,48.81,600.33,47.4z"/>
						<path class="st39" d="M600.68,53.08c0.64,0,1.2-0.56,1.2-1.88c0.56,4.96,1.88,7.7,2.52,9.58c0.34,0.98,0.56,1.75,0.56,2.31
							c0,0.34-0.13,0.56-0.43,0.64C602.9,61.17,601.23,57.06,600.68,53.08z"/>
						<path class="st39" d="M602.56,47.27c0.56,0,1.11-0.34,1.41-1.75c-0.13,0.98-0.21,1.75-0.21,2.31c0,0.77,0.13,1.75,0.13,2.31
							c0,0.9-0.13,1.75-1.11,1.97c-0.21-1.2-0.34-2.31-0.34-3.42C602.43,48.17,602.43,47.7,602.56,47.27z"/>
						<path class="st39" d="M604.1,44.62c-0.21,1.33-0.56,1.75-1.41,1.75c0.21-2.87,0.77-4.41,1.75-5.82
							c0.21-0.34,0.56-0.64,0.9-0.64c0.13,0,0.34,0.13,0.34,0.34c0,0.21-0.13,0.34-0.21,0.56C604.65,41.75,604.31,43.42,604.1,44.62
							z"/>
						<path class="st39" d="M602.77,52.87c0.64-0.13,1.11-0.64,1.2-1.97c0.34,3.21,1.41,6.37,2.22,8.47c0.34,0.9,0.43,1.54,0.43,2.1
							c0,0.34-0.13,0.56-0.34,0.77C604.65,59.93,603.2,55.52,602.77,52.87z"/>
						<path class="st39" d="M604.65,46.37c0.64,0,1.2-0.56,1.41-1.54c-0.13,0.9-0.13,1.54-0.13,2.22c0,0.98,0.13,1.88,0.13,2.44
							c0,0.98-0.64,1.67-1.33,1.67c-0.13-1.11-0.13-1.97-0.13-2.87v-1.92H604.65z"/>
						<path class="st39" d="M605.64,42.31c0.21,0,0.43,0.34,0.43,1.11c0,0.98-0.34,2.1-1.33,2.1
							C605.08,42.73,605.29,42.31,605.64,42.31z"/>
						<path class="st39" d="M604.87,52.1c0.56-0.13,1.2-0.43,1.33-1.75c0.21,3.21,1.11,5.95,1.67,7.91
							c0.34,0.98,0.56,1.67,0.56,2.22c0,0.21-0.13,0.56-0.34,0.64C606.54,58.82,605.29,54.75,604.87,52.1z"/>
						<path class="st39" d="M607.95,46.07c0,1.41,0.13,2.52,0.13,3.21c0,0.98-0.56,1.67-0.98,1.67c-0.21-1.41-0.34-2.65-0.34-3.98
							c0-1.67,0.21-1.97,0.56-1.97C607.6,44.96,607.95,45.3,607.95,46.07z"/>
						<path class="st39" d="M608.37,64.46l0.13-0.77l0.64-1.11l-1.2,0.98l-0.34,0.56h-0.21l0.13-0.77l0.9-0.77l-1.11,0.34
							l-0.21,0.34h-0.34l0.43-0.64l2.22-0.9l0.34-2.44c0.13,0.13,0.21,0.13,0.43,0.13c0.34,0,0.43,0,0.56-0.13l-0.56,2.44l1.41,0.9
							l0.21,0.9h-0.21l-0.56-0.56l-0.98-0.34l-0.98,1.2l-0.43,0.64H608.37z"/>
						<path class="st39" d="M607.09,51.67c0.43,0,0.98-0.43,1.11-1.54c0.13,1.11,0.56,2.99,0.56,3.76s-0.34,1.41-0.77,1.41
							C607.52,54.32,607.31,52.78,607.09,51.67z"/>
						<path class="st39" d="M609.7,56.08c0,0.43,0.21,0.9,0.64,0.9c0.34,0,0.64-0.34,0.9-0.77c0.43,0.43,0.64,1.2,0.64,2.65
							c-0.56-0.13-0.98-0.64-0.98-1.33c-0.13,0.9-0.43,1.33-0.77,1.33c-0.21,0-0.34-0.34-0.34-0.77v-0.77
							c-0.13,0.43-0.77,0.98-1.33,0.77C608.84,57.06,609.27,56.29,609.7,56.08z"/>
						<path class="st39" d="M610.6,53.55c1.2,0,1.54,0.43,1.54,2.1v0.64c-0.56,0-0.9-0.56-0.98-1.11c-0.13,0.77-0.43,1.11-0.64,1.11
							c-0.34,0-0.43-0.21-0.43-0.77v-0.64c-0.43,0.77-0.9,0.77-1.2,0.77C609.27,53.98,609.7,53.55,610.6,53.55z"/>
						<path class="st39" d="M612.91,47.91c0.64,0,1.11-0.64,1.11-1.54c0.21,0.9,0.64,1.2,0.98,1.2c0.43,0,0.9-0.77,0.9-1.67
							c0.13,0.77,0.56,1.41,1.11,1.41c0,1.2-0.21,1.88-0.77,1.88c-0.34,0-0.43-0.56-0.64-1.41c0,0.9-0.43,1.75-0.9,1.75
							c-0.34,0-0.56-0.34-0.77-1.33c-0.13,0.98-0.56,1.75-0.98,1.75c-0.34,0-0.9-0.77-0.9-1.75c-0.21,0.98-0.43,1.33-0.77,1.33
							c-0.43,0-0.9-0.9-0.9-1.75c-0.21,0.9-0.34,1.41-0.64,1.41c-0.56,0-0.77-0.64-0.77-1.88c0.43,0,0.98-0.64,1.11-1.41
							c0,0.9,0.43,1.67,0.9,1.67c0.34,0,0.77-0.34,0.98-1.2C611.92,47.27,612.35,47.91,612.91,47.91z"/>
						<path class="st39" d="M612.91,51.25c0.56,0,1.11-0.77,1.11-1.67c0.21,0.9,0.43,1.33,0.9,1.33c0.43,0,0.77-0.77,0.77-1.75
							c0.64,0.98,0.9,1.97,0.9,2.65c0,0.77-0.21,0.98-0.43,0.98c-0.34,0-0.77-0.43-0.9-1.41c0,1.2-0.34,1.75-0.77,1.75
							c-0.21,0-0.56-0.43-0.77-1.2c0,0.98-0.34,1.67-0.77,1.67c-0.34,0-0.64-0.64-0.64-1.67c-0.21,0.77-0.56,1.2-0.77,1.2
							c-0.43,0-0.77-0.56-0.77-1.75c-0.13,0.98-0.56,1.41-0.9,1.41c-0.21,0-0.43-0.21-0.43-0.98c0-0.64,0.21-1.67,0.9-2.65
							c0,0.98,0.34,1.75,0.77,1.75c0.43,0,0.64-0.43,0.9-1.33C611.92,50.48,612.48,51.25,612.91,51.25z"/>
						<path class="st39" d="M610.21,69.12c0-0.43,0.38-0.81,1.28-1.28c-0.21,0.43-0.43,0.64-0.77,0.98c0.64-0.43,0.56-0.34,0.9-0.56
							c-0.43,0.98-0.81,1.11-1.03,1.11C610.38,69.38,610.21,69.29,610.21,69.12z"/>
						<path class="st39" d="M610.98,70.11c0-0.43,0.34-0.98,1.11-1.75c-0.21,0.64-0.34,0.9-0.56,1.54c0.34-0.56,0.56-0.77,0.77-1.11
							c-0.13,1.54-0.6,1.8-0.94,1.8C611.15,70.62,610.98,70.45,610.98,70.11z"/>
						<path class="st39" d="M612.91,72.5c-0.43,0-0.77-0.21-0.77-0.98c0-0.56,0.13-1.03,0.43-2.05c0.13,0.43,0.34,0.9,0.34,1.54
							c0-0.64,0.21-1.11,0.34-1.54c0.34,0.98,0.43,1.5,0.43,2.05C613.68,72.29,613.34,72.5,612.91,72.5z"/>
						<path class="st39" d="M614.06,38.41c0,0.51,0.17,0.94,0.17,1.03c0,0.43-0.64,0.77-1.33,0.77c-0.43,0-1.11-0.34-1.11-0.64
							c0-0.34,0.38-1.11,0.38-1.75c0-0.13,0-0.21-0.13-0.43c0.21,0.17,0.51,0.21,0.77,0.21c0.26,0,0.64-0.13,0.77-0.34
							c-1.33,0.38-1.8-0.38-1.92-1.03c-0.51,0.21-0.98,0.04-1.11-0.34c-0.21,0.13-0.51,0.17-0.73,0.34
							c-0.21-0.94,0.13-1.15,1.28-1.33c-0.17-0.17-0.21-0.38-0.21-0.56c0-0.56,0.6-0.81,1.97-0.81c0.6,0,0.98,0.21,0.9,0.51
							c0,0.21-0.13,0.21-0.13,0.34c0.73,0.21,0.94,0.81,0.94,1.41C614.62,36.87,614.06,37.09,614.06,38.41z M612.91,35.25
							c0.21,0,0.38-0.13,0.38-0.34s-0.17-0.34-0.38-0.34s-0.38,0.13-0.38,0.34C612.52,35.16,612.69,35.25,612.91,35.25z"/>
						<path class="st39" d="M614.45,70.62c-0.34,0-0.81-0.26-0.94-1.8c0.21,0.34,0.43,0.56,0.77,1.11c-0.21-0.64-0.34-0.9-0.56-1.54
							c0.77,0.77,1.11,1.33,1.11,1.75C614.83,70.45,614.66,70.62,614.45,70.62z"/>
						<path class="st39" d="M615.9,54.88v0.64c0,0.56-0.13,0.77-0.43,0.77c-0.21,0-0.56-0.34-0.77-1.11c0,0.56-0.34,1.11-0.9,1.11
							v-0.64c0-1.67,0.34-2.1,1.54-2.1c0.9,0,1.33,0.43,1.75,2.1C616.76,55.65,616.33,55.65,615.9,54.88z"/>
						<path class="st39" d="M616.12,57.28v0.77c0,0.43-0.13,0.77-0.34,0.77c-0.34,0-0.64-0.43-0.77-1.33
							c-0.13,0.64-0.56,1.2-0.98,1.33c0-1.41,0.13-2.22,0.56-2.52c0.21,0.56,0.64,0.64,0.98,0.64c0.43,0,0.77-0.34,0.77-0.77
							c0.43,0.34,0.77,0.9,0.98,1.88C616.89,58.3,616.2,57.75,616.12,57.28z"/>
						<path class="st39" d="M617.31,64.46l-0.43-0.64l-0.98-1.2l-0.98,0.34l-0.56,0.56h-0.21l0.21-0.9l1.41-0.9l-0.56-2.44
							c0.13,0.13,0.21,0.13,0.56,0.13c0.21,0,0.34,0,0.43-0.13l0.21,2.44l2.31,0.9l0.34,0.64h-0.21l-0.21-0.34l-1.11-0.34l0.9,0.77
							l0.13,0.77h-0.21L618,63.56l-1.2-0.98l0.64,1.11l0.13,0.77H617.31z"/>
						<path class="st39" d="M615.26,69.42c-0.21,0-0.6-0.13-1.03-1.11c0.34,0.21,0.21,0.13,0.9,0.56c-0.34-0.34-0.56-0.56-0.77-0.98
							c0.9,0.43,1.28,0.81,1.28,1.28C615.6,69.29,615.52,69.42,615.26,69.42z"/>
						<path class="st39" d="M618.85,51.67c-0.21,1.11-0.43,2.65-0.9,3.64c-0.43,0-0.77-0.64-0.77-1.41s0.43-2.65,0.56-3.76
							C617.74,51.25,618.43,51.67,618.85,51.67z"/>
						<path class="st39" d="M621.08,52.1c-0.43,2.65-1.67,6.71-3.21,9.02c-0.21-0.13-0.34-0.43-0.34-0.64c0-0.56,0.21-1.2,0.56-2.22
							c0.56-1.97,1.41-4.75,1.67-7.91C619.84,51.67,620.52,52.02,621.08,52.1z"/>
						<path class="st39" d="M618,46.07c0-0.77,0.34-1.11,0.64-1.11c0.34,0,0.43,0.34,0.43,1.97c0,1.33,0,2.52-0.21,3.98
							c-0.43,0-0.98-0.64-0.98-1.67C617.87,48.59,618,47.48,618,46.07z"/>
						<path class="st39" d="M623.17,52.87c-0.43,2.65-1.88,7.06-3.51,9.37c-0.21-0.21-0.34-0.43-0.34-0.77c0-0.56,0.13-1.2,0.43-2.1
							c0.77-2.1,1.88-5.3,2.22-8.47C622.06,52.23,622.49,52.78,623.17,52.87z"/>
						<path class="st39" d="M620.31,42.31c0.34,0,0.56,0.43,0.9,3.21c-0.98,0-1.33-1.11-1.33-2.1
							C619.84,42.65,619.97,42.31,620.31,42.31z"/>
						<path class="st39" d="M621.29,46.37v1.88c0,0.9,0,1.75-0.13,2.87c-0.64,0-1.33-0.64-1.33-1.67c0-0.56,0.13-1.41,0.13-2.44
							c0-0.64,0-1.33-0.13-2.22C620.05,45.86,620.61,46.37,621.29,46.37z"/>
						<path class="st39" d="M621.85,44.62c-0.21-1.2-0.56-2.87-1.33-3.85c-0.13-0.21-0.21-0.34-0.21-0.56s0.21-0.34,0.34-0.34
							c0.34,0,0.64,0.34,0.9,0.64c0.98,1.41,1.54,2.99,1.75,5.82C622.4,46.37,622.06,45.94,621.85,44.62z"/>
						<path class="st39" d="M625.23,53.08c-0.56,3.98-2.22,8.04-3.85,10.69c-0.34-0.13-0.56-0.34-0.56-0.64
							c0-0.56,0.34-1.33,0.64-2.31c0.64-1.88,1.97-4.62,2.52-9.58C624.03,52.57,624.58,53.08,625.23,53.08z"/>
						<path class="st39" d="M623.94,44.62c-0.26-2.22-1.11-3.85-1.97-4.75c-0.43-0.43-0.77-0.56-0.77-0.77s0.21-0.34,0.43-0.34
							c0.64,0,1.88,0.98,2.74,2.65c0.56,1.2,1.11,3.08,1.2,5.05C624.71,46.5,624.07,45.94,623.94,44.62z"/>
						<path class="st39" d="M623.39,47.27c0.13,0.43,0.13,0.9,0.13,1.41c0,1.11-0.13,2.22-0.34,3.42c-0.98-0.21-1.11-1.11-1.11-1.97
							c0-0.56,0.13-1.54,0.13-2.31c0-0.56-0.13-1.33-0.21-2.31C622.27,46.93,622.83,47.27,623.39,47.27z"/>
						<path class="st39" d="M626.81,57.4c-0.9,2.87-2.22,5.82-3.85,7.83c-0.21-0.13-0.34-0.21-0.34-0.56c0-0.43,0.56-1.33,1.11-2.74
							c0.64-1.88,1.41-3.85,2.1-6.84C625.78,56.63,626.12,57.19,626.81,57.4z"/>
						<path class="st39" d="M625.57,47.4c0,1.41,0,3.08-0.21,4.83c-0.98-0.13-1.11-1.11-1.11-1.88v-2.22c0-0.77,0-1.54-0.13-2.44
							C624.37,47.05,625.01,47.4,625.57,47.4z"/>
						<path class="st39" d="M625.48,63.69c0-0.34,0.13-0.64,0.21-1.11c0.13,0.64,1.67,0.98,1.67,2.1v0.43
							c0.21-0.56,0.77-0.56,1.2-0.56c1.11,0,1.5,0.04,1.67-0.13c-0.21,0.98-0.9,1.54-1.88,1.54C627.02,66,625.48,65.1,625.48,63.69z
							"/>
						<path class="st39" d="M627.88,47.82v1.54c0,2.1-0.21,4.83-0.9,7.14c-0.56-0.21-0.98-0.77-0.98-1.97c0-0.34,0-0.77,0.13-1.11
							c0.13-0.77,0.34-2.65,0.34-4.83c0-0.77,0-1.67-0.13-2.52C626.68,47.48,627.32,47.82,627.88,47.82z"/>
						<path class="st39" d="M626.47,61.94c0-0.21,0-0.43,0.13-0.56c0.34,0.64,1.88,0.77,1.88,1.88c0.21-0.98,1.75-0.56,2.44-1.2
							c-0.13,1.33-0.77,1.75-1.88,1.75C627.58,63.78,626.47,63.14,626.47,61.94z"/>
						<path class="st39" d="M627.11,60.14c0-0.21,0-0.34,0.13-0.56c0.43,0.64,1.54,0.64,1.54,1.54c0.34-0.9,1.54-0.56,2.1-0.98
							c-0.13,1.11-0.77,1.75-1.75,1.75C627.88,61.94,627.11,61.17,627.11,60.14z"/>
						<path class="st39" d="M629.12,60.06c-0.98,0-1.58-0.9-1.54-1.97c0.21,0.21,1.54,0.43,1.41,1.54c0.13-1.11,1.11-0.9,1.54-1.41
							v0.56C630.53,59.37,629.97,60.06,629.12,60.06z"/>
						<path class="st39" d="M629.12,58.3c-0.34-0.13-0.64-0.56-0.64-1.11c0-0.64,0.43-1.2,0.43-2.1c0.56,0.56,0.98,1.33,0.98,1.97
							C629.89,57.75,629.42,58.17,629.12,58.3z"/>
						<path class="st39" d="M598.02,47.87c0.56,0,1.2-0.34,1.54-1.75c-0.13,0.9-0.13,1.75-0.13,2.52c0,2.22,0.21,4.06,0.34,4.83
							c0.13,0.34,0.13,0.77,0.13,1.11c0,1.2-0.43,1.75-0.98,1.97c-0.64-2.31-0.98-5.05-0.98-7.14
							C597.9,48.85,597.9,48.29,598.02,47.87z"/>
					</g>
				</g>
			</g>
			<g>
			</g>
			<g>
			</g>
			<g>
			</g>
			<g>
			</g>
			<g>
			</g>
			<g>
			</g>
		</g>
	</g>
</g>
<g id="Layer_2">
	<g>
	</g>
	<g>
	</g>
	<g>
	</g>
	<g>
	</g>
	<g>
	</g>
	<g>
	</g>
</g>
</svg>
